M48
; DRILL file {KiCad (5.1.6)-1} date 10/18/20 09:31:06
; FORMAT={-:-/ absolute / inch / decimal}
; #@! TF.CreationDate,2020-10-18T09:31:06-05:00
; #@! TF.GenerationSoftware,Kicad,Pcbnew,(5.1.6)-1
FMAT,2
INCH
T1C0.0098
T2C0.0157
T3C0.0394
T4C0.1181
%
G90
G05
T1
X4.0551Y-2.7953
X4.0945Y-2.7953
T2
X3.8012Y-3.0689
X4.0157Y-2.687
X4.0182Y-2.5517
X4.1732Y-2.6969
X4.1732Y-2.815
X4.1732Y-2.8937
X4.2045Y-2.6494
X4.2495Y-2.5517
X4.2713Y-2.9131
X4.3406Y-2.6969
X4.3622Y-2.9134
X4.3858Y-2.5197
X4.4094Y-2.7067
X4.4094Y-2.8346
X4.4291Y-2.6476
X4.478Y-2.9131
X4.4882Y-2.6083
X4.4882Y-2.7953
X4.5177Y-2.9528
X4.5276Y-2.7067
X4.5571Y-2.6476
X4.5689Y-3.0689
X4.6142Y-2.9803
X4.7835Y-2.7362
X4.8031Y-2.6083
X4.8051Y-3.0689
X4.8819Y-2.6378
T3
X3.4646Y-2.4409
X3.5646Y-2.4409
X3.6646Y-2.4409
X3.7646Y-2.4409
X3.8646Y-2.4409
X3.9646Y-2.4409
X4.0646Y-2.4409
X5.2953Y-2.6969
X5.2953Y-2.7969
X5.2953Y-2.8969
X5.2953Y-2.9969
X5.0394Y-2.7969
X5.0394Y-2.8969
X5.0394Y-2.9969
T4
X3.2087Y-2.4213
X3.2087Y-3.2087
X5.374Y-2.4213
X5.374Y-3.2087
T3
G00X3.4638Y-2.8394
M15
G01X3.4638Y-2.7606
M16
G05
G00X3.7Y-2.8492
M15
G01X3.7Y-2.7508
M16
G05
T0
M30
