%TF.GenerationSoftware,KiCad,Pcbnew,(5.1.6)-1*%
%TF.CreationDate,2020-10-18T09:30:19-05:00*%
%TF.ProjectId,TackleSensorPCB,5461636b-6c65-4536-956e-736f72504342,rev?*%
%TF.SameCoordinates,Original*%
%TF.FileFunction,Soldermask,Top*%
%TF.FilePolarity,Negative*%
%FSLAX46Y46*%
G04 Gerber Fmt 4.6, Leading zero omitted, Abs format (unit mm)*
G04 Created by KiCad (PCBNEW (5.1.6)-1) date 2020-10-18 09:30:19*
%MOMM*%
%LPD*%
G01*
G04 APERTURE LIST*
%ADD10O,1.800000X1.800000*%
%ADD11R,1.800000X1.800000*%
%ADD12R,0.404800X0.963600*%
%ADD13R,0.963600X0.404800*%
%ADD14R,2.550000X2.550000*%
%ADD15R,0.370000X0.960000*%
%ADD16R,0.960000X0.370000*%
%ADD17R,0.350000X0.600000*%
%ADD18R,1.700000X1.000000*%
%ADD19R,1.100000X0.850000*%
%ADD20R,1.000000X0.900000*%
%ADD21O,2.350000X4.600000*%
%ADD22O,2.600000X5.100000*%
%ADD23R,1.350000X1.260000*%
G04 APERTURE END LIST*
%TO.C,D1*%
G36*
G01*
X123531250Y-61950000D02*
X122968750Y-61950000D01*
G75*
G02*
X122725000Y-61706250I0J243750D01*
G01*
X122725000Y-61218750D01*
G75*
G02*
X122968750Y-60975000I243750J0D01*
G01*
X123531250Y-60975000D01*
G75*
G02*
X123775000Y-61218750I0J-243750D01*
G01*
X123775000Y-61706250D01*
G75*
G02*
X123531250Y-61950000I-243750J0D01*
G01*
G37*
G36*
G01*
X123531250Y-63525000D02*
X122968750Y-63525000D01*
G75*
G02*
X122725000Y-63281250I0J243750D01*
G01*
X122725000Y-62793750D01*
G75*
G02*
X122968750Y-62550000I243750J0D01*
G01*
X123531250Y-62550000D01*
G75*
G02*
X123775000Y-62793750I0J-243750D01*
G01*
X123775000Y-63281250D01*
G75*
G02*
X123531250Y-63525000I-243750J0D01*
G01*
G37*
%TD*%
D10*
%TO.C,J4*%
X103240000Y-62000000D03*
X100700000Y-62000000D03*
X98160000Y-62000000D03*
X95620000Y-62000000D03*
X93080000Y-62000000D03*
X90540000Y-62000000D03*
D11*
X88000000Y-62000000D03*
%TD*%
D12*
%TO.C,U3*%
X108492000Y-70230000D03*
X109000000Y-70230000D03*
X109508000Y-70230000D03*
D13*
X110270000Y-70509400D03*
X110270000Y-70992000D03*
X110270000Y-71500000D03*
X110270000Y-72008000D03*
X110270000Y-72490600D03*
D12*
X109508000Y-72770000D03*
X109000000Y-72770000D03*
X108492000Y-72770000D03*
D13*
X107730000Y-72490600D03*
X107730000Y-72008000D03*
X107730000Y-71500000D03*
X107730000Y-70992000D03*
X107730000Y-70509400D03*
%TD*%
D14*
%TO.C,U2*%
X117840000Y-71120000D03*
D15*
X119090000Y-73055000D03*
X118590000Y-73055000D03*
X118090000Y-73055000D03*
X117590000Y-73055000D03*
X117090000Y-73055000D03*
X116590000Y-73055000D03*
X116590000Y-69185000D03*
X117090000Y-69185000D03*
X117590000Y-69185000D03*
X118090000Y-69185000D03*
X118590000Y-69185000D03*
X119090000Y-69185000D03*
D16*
X119775000Y-69870000D03*
X119775000Y-70370000D03*
X119775000Y-70870000D03*
X119775000Y-71370000D03*
X119775000Y-71870000D03*
X119775000Y-72370000D03*
X115905000Y-72370000D03*
X115905000Y-71870000D03*
X115905000Y-71370000D03*
X115905000Y-70870000D03*
X115905000Y-70370000D03*
X115905000Y-69870000D03*
%TD*%
D17*
%TO.C,U1*%
X103750000Y-70050000D03*
X104250000Y-70050000D03*
X104250000Y-71950000D03*
X103250000Y-71950000D03*
X102750000Y-71950000D03*
D18*
X103500000Y-71000000D03*
D17*
X102750000Y-70050000D03*
X103250000Y-70050000D03*
X103750000Y-71950000D03*
%TD*%
D19*
%TO.C,Test*%
X131500000Y-64875000D03*
X125500000Y-64875000D03*
X131500000Y-61125000D03*
X125500000Y-61125000D03*
%TD*%
%TO.C,R7*%
G36*
G01*
X121802500Y-80140000D02*
X122197500Y-80140000D01*
G75*
G02*
X122370000Y-80312500I0J-172500D01*
G01*
X122370000Y-80657500D01*
G75*
G02*
X122197500Y-80830000I-172500J0D01*
G01*
X121802500Y-80830000D01*
G75*
G02*
X121630000Y-80657500I0J172500D01*
G01*
X121630000Y-80312500D01*
G75*
G02*
X121802500Y-80140000I172500J0D01*
G01*
G37*
G36*
G01*
X121802500Y-79170000D02*
X122197500Y-79170000D01*
G75*
G02*
X122370000Y-79342500I0J-172500D01*
G01*
X122370000Y-79687500D01*
G75*
G02*
X122197500Y-79860000I-172500J0D01*
G01*
X121802500Y-79860000D01*
G75*
G02*
X121630000Y-79687500I0J172500D01*
G01*
X121630000Y-79342500D01*
G75*
G02*
X121802500Y-79170000I172500J0D01*
G01*
G37*
%TD*%
%TO.C,R6*%
G36*
G01*
X115802500Y-80140000D02*
X116197500Y-80140000D01*
G75*
G02*
X116370000Y-80312500I0J-172500D01*
G01*
X116370000Y-80657500D01*
G75*
G02*
X116197500Y-80830000I-172500J0D01*
G01*
X115802500Y-80830000D01*
G75*
G02*
X115630000Y-80657500I0J172500D01*
G01*
X115630000Y-80312500D01*
G75*
G02*
X115802500Y-80140000I172500J0D01*
G01*
G37*
G36*
G01*
X115802500Y-79170000D02*
X116197500Y-79170000D01*
G75*
G02*
X116370000Y-79342500I0J-172500D01*
G01*
X116370000Y-79687500D01*
G75*
G02*
X116197500Y-79860000I-172500J0D01*
G01*
X115802500Y-79860000D01*
G75*
G02*
X115630000Y-79687500I0J172500D01*
G01*
X115630000Y-79342500D01*
G75*
G02*
X115802500Y-79170000I172500J0D01*
G01*
G37*
%TD*%
%TO.C,R5*%
G36*
G01*
X121700000Y-75718750D02*
X121700000Y-76281250D01*
G75*
G02*
X121456250Y-76525000I-243750J0D01*
G01*
X120968750Y-76525000D01*
G75*
G02*
X120725000Y-76281250I0J243750D01*
G01*
X120725000Y-75718750D01*
G75*
G02*
X120968750Y-75475000I243750J0D01*
G01*
X121456250Y-75475000D01*
G75*
G02*
X121700000Y-75718750I0J-243750D01*
G01*
G37*
G36*
G01*
X123275000Y-75718750D02*
X123275000Y-76281250D01*
G75*
G02*
X123031250Y-76525000I-243750J0D01*
G01*
X122543750Y-76525000D01*
G75*
G02*
X122300000Y-76281250I0J243750D01*
G01*
X122300000Y-75718750D01*
G75*
G02*
X122543750Y-75475000I243750J0D01*
G01*
X123031250Y-75475000D01*
G75*
G02*
X123275000Y-75718750I0J-243750D01*
G01*
G37*
%TD*%
%TO.C,R4*%
G36*
G01*
X119655000Y-61775000D02*
X118345000Y-61775000D01*
G75*
G02*
X118075000Y-61505000I0J270000D01*
G01*
X118075000Y-60695000D01*
G75*
G02*
X118345000Y-60425000I270000J0D01*
G01*
X119655000Y-60425000D01*
G75*
G02*
X119925000Y-60695000I0J-270000D01*
G01*
X119925000Y-61505000D01*
G75*
G02*
X119655000Y-61775000I-270000J0D01*
G01*
G37*
G36*
G01*
X119655000Y-64575000D02*
X118345000Y-64575000D01*
G75*
G02*
X118075000Y-64305000I0J270000D01*
G01*
X118075000Y-63495000D01*
G75*
G02*
X118345000Y-63225000I270000J0D01*
G01*
X119655000Y-63225000D01*
G75*
G02*
X119925000Y-63495000I0J-270000D01*
G01*
X119925000Y-64305000D01*
G75*
G02*
X119655000Y-64575000I-270000J0D01*
G01*
G37*
%TD*%
%TO.C,R3*%
G36*
G01*
X107832500Y-66950000D02*
X108227500Y-66950000D01*
G75*
G02*
X108400000Y-67122500I0J-172500D01*
G01*
X108400000Y-67467500D01*
G75*
G02*
X108227500Y-67640000I-172500J0D01*
G01*
X107832500Y-67640000D01*
G75*
G02*
X107660000Y-67467500I0J172500D01*
G01*
X107660000Y-67122500D01*
G75*
G02*
X107832500Y-66950000I172500J0D01*
G01*
G37*
G36*
G01*
X107832500Y-65980000D02*
X108227500Y-65980000D01*
G75*
G02*
X108400000Y-66152500I0J-172500D01*
G01*
X108400000Y-66497500D01*
G75*
G02*
X108227500Y-66670000I-172500J0D01*
G01*
X107832500Y-66670000D01*
G75*
G02*
X107660000Y-66497500I0J172500D01*
G01*
X107660000Y-66152500D01*
G75*
G02*
X107832500Y-65980000I172500J0D01*
G01*
G37*
%TD*%
%TO.C,R2*%
G36*
G01*
X110167500Y-76290000D02*
X109772500Y-76290000D01*
G75*
G02*
X109600000Y-76117500I0J172500D01*
G01*
X109600000Y-75772500D01*
G75*
G02*
X109772500Y-75600000I172500J0D01*
G01*
X110167500Y-75600000D01*
G75*
G02*
X110340000Y-75772500I0J-172500D01*
G01*
X110340000Y-76117500D01*
G75*
G02*
X110167500Y-76290000I-172500J0D01*
G01*
G37*
G36*
G01*
X110167500Y-77260000D02*
X109772500Y-77260000D01*
G75*
G02*
X109600000Y-77087500I0J172500D01*
G01*
X109600000Y-76742500D01*
G75*
G02*
X109772500Y-76570000I172500J0D01*
G01*
X110167500Y-76570000D01*
G75*
G02*
X110340000Y-76742500I0J-172500D01*
G01*
X110340000Y-77087500D01*
G75*
G02*
X110167500Y-77260000I-172500J0D01*
G01*
G37*
%TD*%
%TO.C,R1*%
G36*
G01*
X113197500Y-76360000D02*
X112802500Y-76360000D01*
G75*
G02*
X112630000Y-76187500I0J172500D01*
G01*
X112630000Y-75842500D01*
G75*
G02*
X112802500Y-75670000I172500J0D01*
G01*
X113197500Y-75670000D01*
G75*
G02*
X113370000Y-75842500I0J-172500D01*
G01*
X113370000Y-76187500D01*
G75*
G02*
X113197500Y-76360000I-172500J0D01*
G01*
G37*
G36*
G01*
X113197500Y-77330000D02*
X112802500Y-77330000D01*
G75*
G02*
X112630000Y-77157500I0J172500D01*
G01*
X112630000Y-76812500D01*
G75*
G02*
X112802500Y-76640000I172500J0D01*
G01*
X113197500Y-76640000D01*
G75*
G02*
X113370000Y-76812500I0J-172500D01*
G01*
X113370000Y-77157500D01*
G75*
G02*
X113197500Y-77330000I-172500J0D01*
G01*
G37*
%TD*%
D20*
%TO.C,Q2*%
X120000000Y-80500000D03*
X118000000Y-81450000D03*
X118000000Y-79550000D03*
%TD*%
%TO.C,Q1*%
X114000000Y-80500000D03*
X112000000Y-81450000D03*
X112000000Y-79550000D03*
%TD*%
%TO.C,L1*%
G36*
G01*
X102600000Y-66018750D02*
X102600000Y-66981250D01*
G75*
G02*
X102331250Y-67250000I-268750J0D01*
G01*
X101793750Y-67250000D01*
G75*
G02*
X101525000Y-66981250I0J268750D01*
G01*
X101525000Y-66018750D01*
G75*
G02*
X101793750Y-65750000I268750J0D01*
G01*
X102331250Y-65750000D01*
G75*
G02*
X102600000Y-66018750I0J-268750D01*
G01*
G37*
G36*
G01*
X104475000Y-66018750D02*
X104475000Y-66981250D01*
G75*
G02*
X104206250Y-67250000I-268750J0D01*
G01*
X103668750Y-67250000D01*
G75*
G02*
X103400000Y-66981250I0J268750D01*
G01*
X103400000Y-66018750D01*
G75*
G02*
X103668750Y-65750000I268750J0D01*
G01*
X104206250Y-65750000D01*
G75*
G02*
X104475000Y-66018750I0J-268750D01*
G01*
G37*
%TD*%
D10*
%TO.C,J3*%
X134500000Y-76120000D03*
X134500000Y-73580000D03*
X134500000Y-71040000D03*
D11*
X134500000Y-68500000D03*
%TD*%
D10*
%TO.C,J2*%
X128000000Y-76120000D03*
X128000000Y-73580000D03*
D11*
X128000000Y-71040000D03*
%TD*%
D21*
%TO.C,J1*%
X87980000Y-71120000D03*
D22*
X93980000Y-71120000D03*
%TD*%
%TO.C,F1*%
G36*
G01*
X100725000Y-80655000D02*
X100725000Y-79345000D01*
G75*
G02*
X100995000Y-79075000I270000J0D01*
G01*
X101805000Y-79075000D01*
G75*
G02*
X102075000Y-79345000I0J-270000D01*
G01*
X102075000Y-80655000D01*
G75*
G02*
X101805000Y-80925000I-270000J0D01*
G01*
X100995000Y-80925000D01*
G75*
G02*
X100725000Y-80655000I0J270000D01*
G01*
G37*
G36*
G01*
X97925000Y-80655000D02*
X97925000Y-79345000D01*
G75*
G02*
X98195000Y-79075000I270000J0D01*
G01*
X99005000Y-79075000D01*
G75*
G02*
X99275000Y-79345000I0J-270000D01*
G01*
X99275000Y-80655000D01*
G75*
G02*
X99005000Y-80925000I-270000J0D01*
G01*
X98195000Y-80925000D01*
G75*
G02*
X97925000Y-80655000I0J270000D01*
G01*
G37*
%TD*%
D23*
%TO.C,D2*%
X98470000Y-76000000D03*
X101530000Y-76000000D03*
%TD*%
%TO.C,C5*%
G36*
G01*
X110447500Y-66670000D02*
X110052500Y-66670000D01*
G75*
G02*
X109880000Y-66497500I0J172500D01*
G01*
X109880000Y-66152500D01*
G75*
G02*
X110052500Y-65980000I172500J0D01*
G01*
X110447500Y-65980000D01*
G75*
G02*
X110620000Y-66152500I0J-172500D01*
G01*
X110620000Y-66497500D01*
G75*
G02*
X110447500Y-66670000I-172500J0D01*
G01*
G37*
G36*
G01*
X110447500Y-67640000D02*
X110052500Y-67640000D01*
G75*
G02*
X109880000Y-67467500I0J172500D01*
G01*
X109880000Y-67122500D01*
G75*
G02*
X110052500Y-66950000I172500J0D01*
G01*
X110447500Y-66950000D01*
G75*
G02*
X110620000Y-67122500I0J-172500D01*
G01*
X110620000Y-67467500D01*
G75*
G02*
X110447500Y-67640000I-172500J0D01*
G01*
G37*
%TD*%
%TO.C,C4*%
G36*
G01*
X99570000Y-72482500D02*
X99570000Y-72877500D01*
G75*
G02*
X99397500Y-73050000I-172500J0D01*
G01*
X99052500Y-73050000D01*
G75*
G02*
X98880000Y-72877500I0J172500D01*
G01*
X98880000Y-72482500D01*
G75*
G02*
X99052500Y-72310000I172500J0D01*
G01*
X99397500Y-72310000D01*
G75*
G02*
X99570000Y-72482500I0J-172500D01*
G01*
G37*
G36*
G01*
X100540000Y-72482500D02*
X100540000Y-72877500D01*
G75*
G02*
X100367500Y-73050000I-172500J0D01*
G01*
X100022500Y-73050000D01*
G75*
G02*
X99850000Y-72877500I0J172500D01*
G01*
X99850000Y-72482500D01*
G75*
G02*
X100022500Y-72310000I172500J0D01*
G01*
X100367500Y-72310000D01*
G75*
G02*
X100540000Y-72482500I0J-172500D01*
G01*
G37*
%TD*%
%TO.C,C3*%
G36*
G01*
X99570000Y-70982500D02*
X99570000Y-71377500D01*
G75*
G02*
X99397500Y-71550000I-172500J0D01*
G01*
X99052500Y-71550000D01*
G75*
G02*
X98880000Y-71377500I0J172500D01*
G01*
X98880000Y-70982500D01*
G75*
G02*
X99052500Y-70810000I172500J0D01*
G01*
X99397500Y-70810000D01*
G75*
G02*
X99570000Y-70982500I0J-172500D01*
G01*
G37*
G36*
G01*
X100540000Y-70982500D02*
X100540000Y-71377500D01*
G75*
G02*
X100367500Y-71550000I-172500J0D01*
G01*
X100022500Y-71550000D01*
G75*
G02*
X99850000Y-71377500I0J172500D01*
G01*
X99850000Y-70982500D01*
G75*
G02*
X100022500Y-70810000I172500J0D01*
G01*
X100367500Y-70810000D01*
G75*
G02*
X100540000Y-70982500I0J-172500D01*
G01*
G37*
%TD*%
%TO.C,C2*%
G36*
G01*
X99570000Y-69482500D02*
X99570000Y-69877500D01*
G75*
G02*
X99397500Y-70050000I-172500J0D01*
G01*
X99052500Y-70050000D01*
G75*
G02*
X98880000Y-69877500I0J172500D01*
G01*
X98880000Y-69482500D01*
G75*
G02*
X99052500Y-69310000I172500J0D01*
G01*
X99397500Y-69310000D01*
G75*
G02*
X99570000Y-69482500I0J-172500D01*
G01*
G37*
G36*
G01*
X100540000Y-69482500D02*
X100540000Y-69877500D01*
G75*
G02*
X100367500Y-70050000I-172500J0D01*
G01*
X100022500Y-70050000D01*
G75*
G02*
X99850000Y-69877500I0J172500D01*
G01*
X99850000Y-69482500D01*
G75*
G02*
X100022500Y-69310000I172500J0D01*
G01*
X100367500Y-69310000D01*
G75*
G02*
X100540000Y-69482500I0J-172500D01*
G01*
G37*
%TD*%
%TO.C,C1*%
G36*
G01*
X105140000Y-75197500D02*
X105140000Y-74802500D01*
G75*
G02*
X105312500Y-74630000I172500J0D01*
G01*
X105657500Y-74630000D01*
G75*
G02*
X105830000Y-74802500I0J-172500D01*
G01*
X105830000Y-75197500D01*
G75*
G02*
X105657500Y-75370000I-172500J0D01*
G01*
X105312500Y-75370000D01*
G75*
G02*
X105140000Y-75197500I0J172500D01*
G01*
G37*
G36*
G01*
X104170000Y-75197500D02*
X104170000Y-74802500D01*
G75*
G02*
X104342500Y-74630000I172500J0D01*
G01*
X104687500Y-74630000D01*
G75*
G02*
X104860000Y-74802500I0J-172500D01*
G01*
X104860000Y-75197500D01*
G75*
G02*
X104687500Y-75370000I-172500J0D01*
G01*
X104342500Y-75370000D01*
G75*
G02*
X104170000Y-75197500I0J172500D01*
G01*
G37*
%TD*%
M02*
