%TF.GenerationSoftware,KiCad,Pcbnew,(5.1.6)-1*%
%TF.CreationDate,2020-10-18T09:30:19-05:00*%
%TF.ProjectId,TackleSensorPCB,5461636b-6c65-4536-956e-736f72504342,rev?*%
%TF.SameCoordinates,Original*%
%TF.FileFunction,Copper,L1,Top*%
%TF.FilePolarity,Positive*%
%FSLAX46Y46*%
G04 Gerber Fmt 4.6, Leading zero omitted, Abs format (unit mm)*
G04 Created by KiCad (PCBNEW (5.1.6)-1) date 2020-10-18 09:30:19*
%MOMM*%
%LPD*%
G01*
G04 APERTURE LIST*
%TA.AperFunction,ComponentPad*%
%ADD10O,1.700000X1.700000*%
%TD*%
%TA.AperFunction,ComponentPad*%
%ADD11R,1.700000X1.700000*%
%TD*%
%TA.AperFunction,SMDPad,CuDef*%
%ADD12R,0.304800X0.863600*%
%TD*%
%TA.AperFunction,SMDPad,CuDef*%
%ADD13R,0.863600X0.304800*%
%TD*%
%TA.AperFunction,SMDPad,CuDef*%
%ADD14R,2.450000X2.450000*%
%TD*%
%TA.AperFunction,SMDPad,CuDef*%
%ADD15R,0.270000X0.860000*%
%TD*%
%TA.AperFunction,SMDPad,CuDef*%
%ADD16R,0.860000X0.270000*%
%TD*%
%TA.AperFunction,SMDPad,CuDef*%
%ADD17R,0.250000X0.500000*%
%TD*%
%TA.AperFunction,SMDPad,CuDef*%
%ADD18R,1.600000X0.900000*%
%TD*%
%TA.AperFunction,ViaPad*%
%ADD19C,0.600000*%
%TD*%
%TA.AperFunction,SMDPad,CuDef*%
%ADD20R,1.000000X0.750000*%
%TD*%
%TA.AperFunction,SMDPad,CuDef*%
%ADD21R,0.900000X0.800000*%
%TD*%
%TA.AperFunction,ComponentPad*%
%ADD22O,2.250000X4.500000*%
%TD*%
%TA.AperFunction,ComponentPad*%
%ADD23O,2.500000X5.000000*%
%TD*%
%TA.AperFunction,SMDPad,CuDef*%
%ADD24R,1.250000X1.160000*%
%TD*%
%TA.AperFunction,ViaPad*%
%ADD25C,0.800000*%
%TD*%
%TA.AperFunction,ViaPad*%
%ADD26C,3.500000*%
%TD*%
%TA.AperFunction,Conductor*%
%ADD27C,0.200000*%
%TD*%
%TA.AperFunction,Conductor*%
%ADD28C,0.300000*%
%TD*%
%TA.AperFunction,Conductor*%
%ADD29C,0.250000*%
%TD*%
%TA.AperFunction,Conductor*%
%ADD30C,0.500000*%
%TD*%
%TA.AperFunction,Conductor*%
%ADD31C,0.254000*%
%TD*%
G04 APERTURE END LIST*
%TO.P,D1,2*%
%TO.N,Net-(D1-Pad2)*%
%TA.AperFunction,SMDPad,CuDef*%
G36*
G01*
X123506250Y-61900000D02*
X122993750Y-61900000D01*
G75*
G02*
X122775000Y-61681250I0J218750D01*
G01*
X122775000Y-61243750D01*
G75*
G02*
X122993750Y-61025000I218750J0D01*
G01*
X123506250Y-61025000D01*
G75*
G02*
X123725000Y-61243750I0J-218750D01*
G01*
X123725000Y-61681250D01*
G75*
G02*
X123506250Y-61900000I-218750J0D01*
G01*
G37*
%TD.AperFunction*%
%TO.P,D1,1*%
%TO.N,GND*%
%TA.AperFunction,SMDPad,CuDef*%
G36*
G01*
X123506250Y-63475000D02*
X122993750Y-63475000D01*
G75*
G02*
X122775000Y-63256250I0J218750D01*
G01*
X122775000Y-62818750D01*
G75*
G02*
X122993750Y-62600000I218750J0D01*
G01*
X123506250Y-62600000D01*
G75*
G02*
X123725000Y-62818750I0J-218750D01*
G01*
X123725000Y-63256250D01*
G75*
G02*
X123506250Y-63475000I-218750J0D01*
G01*
G37*
%TD.AperFunction*%
%TD*%
D10*
%TO.P,J4,7*%
%TO.N,SBWTCK*%
X103240000Y-62000000D03*
%TO.P,J4,6*%
%TO.N,SBWTDIO*%
X100700000Y-62000000D03*
%TO.P,J4,5*%
%TO.N,TXD*%
X98160000Y-62000000D03*
%TO.P,J4,4*%
%TO.N,RXD*%
X95620000Y-62000000D03*
%TO.P,J4,3*%
%TO.N,+3V3*%
X93080000Y-62000000D03*
%TO.P,J4,2*%
%TO.N,Net-(J4-Pad2)*%
X90540000Y-62000000D03*
D11*
%TO.P,J4,1*%
%TO.N,GND*%
X88000000Y-62000000D03*
%TD*%
D12*
%TO.P,U3,16*%
%TO.N,Net-(U3-Pad16)*%
X108492000Y-70230000D03*
%TO.P,U3,15*%
%TO.N,Net-(U3-Pad15)*%
X109000000Y-70230000D03*
%TO.P,U3,14*%
%TO.N,+3V3*%
X109508000Y-70230000D03*
D13*
%TO.P,U3,13*%
%TO.N,Net-(U3-Pad13)*%
X110270000Y-70509400D03*
%TO.P,U3,12*%
%TO.N,GND*%
X110270000Y-70992000D03*
%TO.P,U3,11*%
%TO.N,INT1*%
X110270000Y-71500000D03*
%TO.P,U3,10*%
%TO.N,GND*%
X110270000Y-72008000D03*
%TO.P,U3,9*%
%TO.N,INT2*%
X110270000Y-72490600D03*
D12*
%TO.P,U3,8*%
%TO.N,Net-(U3-Pad8)*%
X109508000Y-72770000D03*
%TO.P,U3,7*%
%TO.N,GND*%
X109000000Y-72770000D03*
%TO.P,U3,6*%
%TO.N,SDA*%
X108492000Y-72770000D03*
D13*
%TO.P,U3,5*%
%TO.N,GND*%
X107730000Y-72490600D03*
%TO.P,U3,4*%
%TO.N,SCL*%
X107730000Y-72008000D03*
%TO.P,U3,3*%
%TO.N,Net-(U3-Pad3)*%
X107730000Y-71500000D03*
%TO.P,U3,2*%
%TO.N,Net-(C5-Pad1)*%
X107730000Y-70992000D03*
%TO.P,U3,1*%
%TO.N,+3V3*%
X107730000Y-70509400D03*
%TD*%
D14*
%TO.P,U2,25*%
%TO.N,GND*%
X117840000Y-71120000D03*
D15*
%TO.P,U2,18*%
X119090000Y-73055000D03*
%TO.P,U2,17*%
%TO.N,Net-(U2-Pad17)*%
X118590000Y-73055000D03*
%TO.P,U2,16*%
%TO.N,Net-(U2-Pad16)*%
X118090000Y-73055000D03*
%TO.P,U2,15*%
%TO.N,Net-(U2-Pad15)*%
X117590000Y-73055000D03*
%TO.P,U2,14*%
%TO.N,Net-(U2-Pad14)*%
X117090000Y-73055000D03*
%TO.P,U2,13*%
%TO.N,SW0*%
X116590000Y-73055000D03*
%TO.P,U2,6*%
%TO.N,Net-(U2-Pad6)*%
X116590000Y-69185000D03*
%TO.P,U2,5*%
%TO.N,INT2*%
X117090000Y-69185000D03*
%TO.P,U2,4*%
%TO.N,RXD*%
X117590000Y-69185000D03*
%TO.P,U2,3*%
%TO.N,TXD*%
X118090000Y-69185000D03*
%TO.P,U2,2*%
%TO.N,SBWTCK*%
X118590000Y-69185000D03*
%TO.P,U2,1*%
%TO.N,SBWTDIO*%
X119090000Y-69185000D03*
D16*
%TO.P,U2,24*%
%TO.N,+3V3*%
X119775000Y-69870000D03*
%TO.P,U2,23*%
%TO.N,GND*%
X119775000Y-70370000D03*
%TO.P,U2,22*%
%TO.N,Net-(U2-Pad22)*%
X119775000Y-70870000D03*
%TO.P,U2,21*%
%TO.N,Net-(U2-Pad21)*%
X119775000Y-71370000D03*
%TO.P,U2,20*%
%TO.N,L0*%
X119775000Y-71870000D03*
%TO.P,U2,19*%
%TO.N,Net-(U2-Pad19)*%
X119775000Y-72370000D03*
%TO.P,U2,12*%
%TO.N,Net-(U2-Pad12)*%
X115905000Y-72370000D03*
%TO.P,U2,11*%
%TO.N,Net-(U2-Pad11)*%
X115905000Y-71870000D03*
%TO.P,U2,10*%
%TO.N,SCL*%
X115905000Y-71370000D03*
%TO.P,U2,9*%
%TO.N,SDA*%
X115905000Y-70870000D03*
%TO.P,U2,8*%
%TO.N,S0_INT*%
X115905000Y-70370000D03*
%TO.P,U2,7*%
%TO.N,INT1*%
X115905000Y-69870000D03*
%TD*%
D17*
%TO.P,U1,6*%
%TO.N,+3V3*%
X103750000Y-70050000D03*
%TO.P,U1,5*%
%TO.N,GND*%
X104250000Y-70050000D03*
%TO.P,U1,4*%
X104250000Y-71950000D03*
%TO.P,U1,2*%
%TO.N,Net-(C1-Pad1)*%
X103250000Y-71950000D03*
%TO.P,U1,1*%
%TO.N,GND*%
X102750000Y-71950000D03*
D18*
%TO.P,U1,9*%
X103500000Y-71000000D03*
D19*
%TD*%
%TO.N,GND*%
%TO.C,U1*%
X104000000Y-71000000D03*
%TO.N,GND*%
%TO.C,U1*%
X103000000Y-71000000D03*
D17*
%TD*%
%TO.P,U1,8*%
%TO.N,PG*%
X102750000Y-70050000D03*
%TO.P,U1,7*%
%TO.N,Net-(L1-Pad1)*%
X103250000Y-70050000D03*
%TO.P,U1,3*%
%TO.N,Net-(C1-Pad1)*%
X103750000Y-71950000D03*
%TD*%
D20*
%TO.P,Test,2*%
%TO.N,GND*%
X131500000Y-64875000D03*
%TO.P,Test,1*%
%TO.N,SW0*%
X125500000Y-64875000D03*
%TO.P,Test,2*%
%TO.N,GND*%
X131500000Y-61125000D03*
%TO.P,Test,1*%
%TO.N,SW0*%
X125500000Y-61125000D03*
%TD*%
%TO.P,R7,2*%
%TO.N,S0_Vin*%
%TA.AperFunction,SMDPad,CuDef*%
G36*
G01*
X121827500Y-80190000D02*
X122172500Y-80190000D01*
G75*
G02*
X122320000Y-80337500I0J-147500D01*
G01*
X122320000Y-80632500D01*
G75*
G02*
X122172500Y-80780000I-147500J0D01*
G01*
X121827500Y-80780000D01*
G75*
G02*
X121680000Y-80632500I0J147500D01*
G01*
X121680000Y-80337500D01*
G75*
G02*
X121827500Y-80190000I147500J0D01*
G01*
G37*
%TD.AperFunction*%
%TO.P,R7,1*%
%TO.N,Vin*%
%TA.AperFunction,SMDPad,CuDef*%
G36*
G01*
X121827500Y-79220000D02*
X122172500Y-79220000D01*
G75*
G02*
X122320000Y-79367500I0J-147500D01*
G01*
X122320000Y-79662500D01*
G75*
G02*
X122172500Y-79810000I-147500J0D01*
G01*
X121827500Y-79810000D01*
G75*
G02*
X121680000Y-79662500I0J147500D01*
G01*
X121680000Y-79367500D01*
G75*
G02*
X121827500Y-79220000I147500J0D01*
G01*
G37*
%TD.AperFunction*%
%TD*%
%TO.P,R6,2*%
%TO.N,notS0_Vin*%
%TA.AperFunction,SMDPad,CuDef*%
G36*
G01*
X115827500Y-80190000D02*
X116172500Y-80190000D01*
G75*
G02*
X116320000Y-80337500I0J-147500D01*
G01*
X116320000Y-80632500D01*
G75*
G02*
X116172500Y-80780000I-147500J0D01*
G01*
X115827500Y-80780000D01*
G75*
G02*
X115680000Y-80632500I0J147500D01*
G01*
X115680000Y-80337500D01*
G75*
G02*
X115827500Y-80190000I147500J0D01*
G01*
G37*
%TD.AperFunction*%
%TO.P,R6,1*%
%TO.N,Vin*%
%TA.AperFunction,SMDPad,CuDef*%
G36*
G01*
X115827500Y-79220000D02*
X116172500Y-79220000D01*
G75*
G02*
X116320000Y-79367500I0J-147500D01*
G01*
X116320000Y-79662500D01*
G75*
G02*
X116172500Y-79810000I-147500J0D01*
G01*
X115827500Y-79810000D01*
G75*
G02*
X115680000Y-79662500I0J147500D01*
G01*
X115680000Y-79367500D01*
G75*
G02*
X115827500Y-79220000I147500J0D01*
G01*
G37*
%TD.AperFunction*%
%TD*%
%TO.P,R5,2*%
%TO.N,S0_INT*%
%TA.AperFunction,SMDPad,CuDef*%
G36*
G01*
X121650000Y-75743750D02*
X121650000Y-76256250D01*
G75*
G02*
X121431250Y-76475000I-218750J0D01*
G01*
X120993750Y-76475000D01*
G75*
G02*
X120775000Y-76256250I0J218750D01*
G01*
X120775000Y-75743750D01*
G75*
G02*
X120993750Y-75525000I218750J0D01*
G01*
X121431250Y-75525000D01*
G75*
G02*
X121650000Y-75743750I0J-218750D01*
G01*
G37*
%TD.AperFunction*%
%TO.P,R5,1*%
%TO.N,S0_3V3*%
%TA.AperFunction,SMDPad,CuDef*%
G36*
G01*
X123225000Y-75743750D02*
X123225000Y-76256250D01*
G75*
G02*
X123006250Y-76475000I-218750J0D01*
G01*
X122568750Y-76475000D01*
G75*
G02*
X122350000Y-76256250I0J218750D01*
G01*
X122350000Y-75743750D01*
G75*
G02*
X122568750Y-75525000I218750J0D01*
G01*
X123006250Y-75525000D01*
G75*
G02*
X123225000Y-75743750I0J-218750D01*
G01*
G37*
%TD.AperFunction*%
%TD*%
%TO.P,R4,2*%
%TO.N,Net-(D1-Pad2)*%
%TA.AperFunction,SMDPad,CuDef*%
G36*
G01*
X119625000Y-61725000D02*
X118375000Y-61725000D01*
G75*
G02*
X118125000Y-61475000I0J250000D01*
G01*
X118125000Y-60725000D01*
G75*
G02*
X118375000Y-60475000I250000J0D01*
G01*
X119625000Y-60475000D01*
G75*
G02*
X119875000Y-60725000I0J-250000D01*
G01*
X119875000Y-61475000D01*
G75*
G02*
X119625000Y-61725000I-250000J0D01*
G01*
G37*
%TD.AperFunction*%
%TO.P,R4,1*%
%TO.N,L0*%
%TA.AperFunction,SMDPad,CuDef*%
G36*
G01*
X119625000Y-64525000D02*
X118375000Y-64525000D01*
G75*
G02*
X118125000Y-64275000I0J250000D01*
G01*
X118125000Y-63525000D01*
G75*
G02*
X118375000Y-63275000I250000J0D01*
G01*
X119625000Y-63275000D01*
G75*
G02*
X119875000Y-63525000I0J-250000D01*
G01*
X119875000Y-64275000D01*
G75*
G02*
X119625000Y-64525000I-250000J0D01*
G01*
G37*
%TD.AperFunction*%
%TD*%
%TO.P,R3,2*%
%TO.N,PG*%
%TA.AperFunction,SMDPad,CuDef*%
G36*
G01*
X107857500Y-67000000D02*
X108202500Y-67000000D01*
G75*
G02*
X108350000Y-67147500I0J-147500D01*
G01*
X108350000Y-67442500D01*
G75*
G02*
X108202500Y-67590000I-147500J0D01*
G01*
X107857500Y-67590000D01*
G75*
G02*
X107710000Y-67442500I0J147500D01*
G01*
X107710000Y-67147500D01*
G75*
G02*
X107857500Y-67000000I147500J0D01*
G01*
G37*
%TD.AperFunction*%
%TO.P,R3,1*%
%TO.N,+3V3*%
%TA.AperFunction,SMDPad,CuDef*%
G36*
G01*
X107857500Y-66030000D02*
X108202500Y-66030000D01*
G75*
G02*
X108350000Y-66177500I0J-147500D01*
G01*
X108350000Y-66472500D01*
G75*
G02*
X108202500Y-66620000I-147500J0D01*
G01*
X107857500Y-66620000D01*
G75*
G02*
X107710000Y-66472500I0J147500D01*
G01*
X107710000Y-66177500D01*
G75*
G02*
X107857500Y-66030000I147500J0D01*
G01*
G37*
%TD.AperFunction*%
%TD*%
%TO.P,R2,2*%
%TO.N,SDA*%
%TA.AperFunction,SMDPad,CuDef*%
G36*
G01*
X110142500Y-76240000D02*
X109797500Y-76240000D01*
G75*
G02*
X109650000Y-76092500I0J147500D01*
G01*
X109650000Y-75797500D01*
G75*
G02*
X109797500Y-75650000I147500J0D01*
G01*
X110142500Y-75650000D01*
G75*
G02*
X110290000Y-75797500I0J-147500D01*
G01*
X110290000Y-76092500D01*
G75*
G02*
X110142500Y-76240000I-147500J0D01*
G01*
G37*
%TD.AperFunction*%
%TO.P,R2,1*%
%TO.N,+3V3*%
%TA.AperFunction,SMDPad,CuDef*%
G36*
G01*
X110142500Y-77210000D02*
X109797500Y-77210000D01*
G75*
G02*
X109650000Y-77062500I0J147500D01*
G01*
X109650000Y-76767500D01*
G75*
G02*
X109797500Y-76620000I147500J0D01*
G01*
X110142500Y-76620000D01*
G75*
G02*
X110290000Y-76767500I0J-147500D01*
G01*
X110290000Y-77062500D01*
G75*
G02*
X110142500Y-77210000I-147500J0D01*
G01*
G37*
%TD.AperFunction*%
%TD*%
%TO.P,R1,2*%
%TO.N,SCL*%
%TA.AperFunction,SMDPad,CuDef*%
G36*
G01*
X113172500Y-76310000D02*
X112827500Y-76310000D01*
G75*
G02*
X112680000Y-76162500I0J147500D01*
G01*
X112680000Y-75867500D01*
G75*
G02*
X112827500Y-75720000I147500J0D01*
G01*
X113172500Y-75720000D01*
G75*
G02*
X113320000Y-75867500I0J-147500D01*
G01*
X113320000Y-76162500D01*
G75*
G02*
X113172500Y-76310000I-147500J0D01*
G01*
G37*
%TD.AperFunction*%
%TO.P,R1,1*%
%TO.N,+3V3*%
%TA.AperFunction,SMDPad,CuDef*%
G36*
G01*
X113172500Y-77280000D02*
X112827500Y-77280000D01*
G75*
G02*
X112680000Y-77132500I0J147500D01*
G01*
X112680000Y-76837500D01*
G75*
G02*
X112827500Y-76690000I147500J0D01*
G01*
X113172500Y-76690000D01*
G75*
G02*
X113320000Y-76837500I0J-147500D01*
G01*
X113320000Y-77132500D01*
G75*
G02*
X113172500Y-77280000I-147500J0D01*
G01*
G37*
%TD.AperFunction*%
%TD*%
D21*
%TO.P,Q2,3*%
%TO.N,S0_Vin*%
X120000000Y-80500000D03*
%TO.P,Q2,2*%
%TO.N,GND*%
X118000000Y-81450000D03*
%TO.P,Q2,1*%
%TO.N,notS0_Vin*%
X118000000Y-79550000D03*
%TD*%
%TO.P,Q1,3*%
%TO.N,notS0_Vin*%
X114000000Y-80500000D03*
%TO.P,Q1,2*%
%TO.N,GND*%
X112000000Y-81450000D03*
%TO.P,Q1,1*%
%TO.N,S0_INT*%
X112000000Y-79550000D03*
%TD*%
%TO.P,L1,2*%
%TO.N,+3V3*%
%TA.AperFunction,SMDPad,CuDef*%
G36*
G01*
X102550000Y-66043750D02*
X102550000Y-66956250D01*
G75*
G02*
X102306250Y-67200000I-243750J0D01*
G01*
X101818750Y-67200000D01*
G75*
G02*
X101575000Y-66956250I0J243750D01*
G01*
X101575000Y-66043750D01*
G75*
G02*
X101818750Y-65800000I243750J0D01*
G01*
X102306250Y-65800000D01*
G75*
G02*
X102550000Y-66043750I0J-243750D01*
G01*
G37*
%TD.AperFunction*%
%TO.P,L1,1*%
%TO.N,Net-(L1-Pad1)*%
%TA.AperFunction,SMDPad,CuDef*%
G36*
G01*
X104425000Y-66043750D02*
X104425000Y-66956250D01*
G75*
G02*
X104181250Y-67200000I-243750J0D01*
G01*
X103693750Y-67200000D01*
G75*
G02*
X103450000Y-66956250I0J243750D01*
G01*
X103450000Y-66043750D01*
G75*
G02*
X103693750Y-65800000I243750J0D01*
G01*
X104181250Y-65800000D01*
G75*
G02*
X104425000Y-66043750I0J-243750D01*
G01*
G37*
%TD.AperFunction*%
%TD*%
D10*
%TO.P,J3,4*%
%TO.N,GND*%
X134500000Y-76120000D03*
%TO.P,J3,3*%
%TO.N,Vin*%
X134500000Y-73580000D03*
%TO.P,J3,2*%
%TO.N,S0_Vin*%
X134500000Y-71040000D03*
D11*
%TO.P,J3,1*%
%TO.N,notS0_Vin*%
X134500000Y-68500000D03*
%TD*%
D10*
%TO.P,J2,3*%
%TO.N,GND*%
X128000000Y-76120000D03*
%TO.P,J2,2*%
%TO.N,Vin*%
X128000000Y-73580000D03*
D11*
%TO.P,J2,1*%
%TO.N,S0_3V3*%
X128000000Y-71040000D03*
%TD*%
D22*
%TO.P,J1,2*%
%TO.N,GND*%
X87980000Y-71120000D03*
D23*
%TO.P,J1,1*%
%TO.N,Vin*%
X93980000Y-71120000D03*
%TD*%
%TO.P,F1,2*%
%TO.N,Net-(C1-Pad1)*%
%TA.AperFunction,SMDPad,CuDef*%
G36*
G01*
X100775000Y-80625000D02*
X100775000Y-79375000D01*
G75*
G02*
X101025000Y-79125000I250000J0D01*
G01*
X101775000Y-79125000D01*
G75*
G02*
X102025000Y-79375000I0J-250000D01*
G01*
X102025000Y-80625000D01*
G75*
G02*
X101775000Y-80875000I-250000J0D01*
G01*
X101025000Y-80875000D01*
G75*
G02*
X100775000Y-80625000I0J250000D01*
G01*
G37*
%TD.AperFunction*%
%TO.P,F1,1*%
%TO.N,Vin*%
%TA.AperFunction,SMDPad,CuDef*%
G36*
G01*
X97975000Y-80625000D02*
X97975000Y-79375000D01*
G75*
G02*
X98225000Y-79125000I250000J0D01*
G01*
X98975000Y-79125000D01*
G75*
G02*
X99225000Y-79375000I0J-250000D01*
G01*
X99225000Y-80625000D01*
G75*
G02*
X98975000Y-80875000I-250000J0D01*
G01*
X98225000Y-80875000D01*
G75*
G02*
X97975000Y-80625000I0J250000D01*
G01*
G37*
%TD.AperFunction*%
%TD*%
D24*
%TO.P,D2,2*%
%TO.N,GND*%
X98470000Y-76000000D03*
%TO.P,D2,1*%
%TO.N,Net-(C1-Pad1)*%
X101530000Y-76000000D03*
%TD*%
%TO.P,C5,2*%
%TO.N,GND*%
%TA.AperFunction,SMDPad,CuDef*%
G36*
G01*
X110422500Y-66620000D02*
X110077500Y-66620000D01*
G75*
G02*
X109930000Y-66472500I0J147500D01*
G01*
X109930000Y-66177500D01*
G75*
G02*
X110077500Y-66030000I147500J0D01*
G01*
X110422500Y-66030000D01*
G75*
G02*
X110570000Y-66177500I0J-147500D01*
G01*
X110570000Y-66472500D01*
G75*
G02*
X110422500Y-66620000I-147500J0D01*
G01*
G37*
%TD.AperFunction*%
%TO.P,C5,1*%
%TO.N,Net-(C5-Pad1)*%
%TA.AperFunction,SMDPad,CuDef*%
G36*
G01*
X110422500Y-67590000D02*
X110077500Y-67590000D01*
G75*
G02*
X109930000Y-67442500I0J147500D01*
G01*
X109930000Y-67147500D01*
G75*
G02*
X110077500Y-67000000I147500J0D01*
G01*
X110422500Y-67000000D01*
G75*
G02*
X110570000Y-67147500I0J-147500D01*
G01*
X110570000Y-67442500D01*
G75*
G02*
X110422500Y-67590000I-147500J0D01*
G01*
G37*
%TD.AperFunction*%
%TD*%
%TO.P,C4,2*%
%TO.N,GND*%
%TA.AperFunction,SMDPad,CuDef*%
G36*
G01*
X99520000Y-72507500D02*
X99520000Y-72852500D01*
G75*
G02*
X99372500Y-73000000I-147500J0D01*
G01*
X99077500Y-73000000D01*
G75*
G02*
X98930000Y-72852500I0J147500D01*
G01*
X98930000Y-72507500D01*
G75*
G02*
X99077500Y-72360000I147500J0D01*
G01*
X99372500Y-72360000D01*
G75*
G02*
X99520000Y-72507500I0J-147500D01*
G01*
G37*
%TD.AperFunction*%
%TO.P,C4,1*%
%TO.N,+3V3*%
%TA.AperFunction,SMDPad,CuDef*%
G36*
G01*
X100490000Y-72507500D02*
X100490000Y-72852500D01*
G75*
G02*
X100342500Y-73000000I-147500J0D01*
G01*
X100047500Y-73000000D01*
G75*
G02*
X99900000Y-72852500I0J147500D01*
G01*
X99900000Y-72507500D01*
G75*
G02*
X100047500Y-72360000I147500J0D01*
G01*
X100342500Y-72360000D01*
G75*
G02*
X100490000Y-72507500I0J-147500D01*
G01*
G37*
%TD.AperFunction*%
%TD*%
%TO.P,C3,2*%
%TO.N,GND*%
%TA.AperFunction,SMDPad,CuDef*%
G36*
G01*
X99520000Y-71007500D02*
X99520000Y-71352500D01*
G75*
G02*
X99372500Y-71500000I-147500J0D01*
G01*
X99077500Y-71500000D01*
G75*
G02*
X98930000Y-71352500I0J147500D01*
G01*
X98930000Y-71007500D01*
G75*
G02*
X99077500Y-70860000I147500J0D01*
G01*
X99372500Y-70860000D01*
G75*
G02*
X99520000Y-71007500I0J-147500D01*
G01*
G37*
%TD.AperFunction*%
%TO.P,C3,1*%
%TO.N,+3V3*%
%TA.AperFunction,SMDPad,CuDef*%
G36*
G01*
X100490000Y-71007500D02*
X100490000Y-71352500D01*
G75*
G02*
X100342500Y-71500000I-147500J0D01*
G01*
X100047500Y-71500000D01*
G75*
G02*
X99900000Y-71352500I0J147500D01*
G01*
X99900000Y-71007500D01*
G75*
G02*
X100047500Y-70860000I147500J0D01*
G01*
X100342500Y-70860000D01*
G75*
G02*
X100490000Y-71007500I0J-147500D01*
G01*
G37*
%TD.AperFunction*%
%TD*%
%TO.P,C2,2*%
%TO.N,GND*%
%TA.AperFunction,SMDPad,CuDef*%
G36*
G01*
X99520000Y-69507500D02*
X99520000Y-69852500D01*
G75*
G02*
X99372500Y-70000000I-147500J0D01*
G01*
X99077500Y-70000000D01*
G75*
G02*
X98930000Y-69852500I0J147500D01*
G01*
X98930000Y-69507500D01*
G75*
G02*
X99077500Y-69360000I147500J0D01*
G01*
X99372500Y-69360000D01*
G75*
G02*
X99520000Y-69507500I0J-147500D01*
G01*
G37*
%TD.AperFunction*%
%TO.P,C2,1*%
%TO.N,+3V3*%
%TA.AperFunction,SMDPad,CuDef*%
G36*
G01*
X100490000Y-69507500D02*
X100490000Y-69852500D01*
G75*
G02*
X100342500Y-70000000I-147500J0D01*
G01*
X100047500Y-70000000D01*
G75*
G02*
X99900000Y-69852500I0J147500D01*
G01*
X99900000Y-69507500D01*
G75*
G02*
X100047500Y-69360000I147500J0D01*
G01*
X100342500Y-69360000D01*
G75*
G02*
X100490000Y-69507500I0J-147500D01*
G01*
G37*
%TD.AperFunction*%
%TD*%
%TO.P,C1,2*%
%TO.N,GND*%
%TA.AperFunction,SMDPad,CuDef*%
G36*
G01*
X105190000Y-75172500D02*
X105190000Y-74827500D01*
G75*
G02*
X105337500Y-74680000I147500J0D01*
G01*
X105632500Y-74680000D01*
G75*
G02*
X105780000Y-74827500I0J-147500D01*
G01*
X105780000Y-75172500D01*
G75*
G02*
X105632500Y-75320000I-147500J0D01*
G01*
X105337500Y-75320000D01*
G75*
G02*
X105190000Y-75172500I0J147500D01*
G01*
G37*
%TD.AperFunction*%
%TO.P,C1,1*%
%TO.N,Net-(C1-Pad1)*%
%TA.AperFunction,SMDPad,CuDef*%
G36*
G01*
X104220000Y-75172500D02*
X104220000Y-74827500D01*
G75*
G02*
X104367500Y-74680000I147500J0D01*
G01*
X104662500Y-74680000D01*
G75*
G02*
X104810000Y-74827500I0J-147500D01*
G01*
X104810000Y-75172500D01*
G75*
G02*
X104662500Y-75320000I-147500J0D01*
G01*
X104367500Y-75320000D01*
G75*
G02*
X104220000Y-75172500I0J147500D01*
G01*
G37*
%TD.AperFunction*%
%TD*%
D25*
%TO.N,GND*%
X110800000Y-74000000D03*
D26*
X136500000Y-81500000D03*
X136500000Y-61500000D03*
X81500000Y-61500000D03*
X81500000Y-81500000D03*
D25*
X121500000Y-69500000D03*
X112000000Y-72000000D03*
X106000000Y-71500000D03*
X124000000Y-67000000D03*
X111400000Y-64000000D03*
%TO.N,+3V3*%
X102062500Y-64812500D03*
X107937500Y-64812500D03*
X122000000Y-66250000D03*
X114000000Y-66250000D03*
%TO.N,Net-(C5-Pad1)*%
X110250000Y-68500000D03*
X106000000Y-68500000D03*
%TO.N,Vin*%
X96550000Y-77950000D03*
X122050000Y-77950000D03*
X116050000Y-77950000D03*
%TO.N,S0_INT*%
X114000000Y-71000000D03*
X117200001Y-75700001D03*
%TO.N,SCL*%
X106000000Y-73500000D03*
X114750000Y-75000000D03*
%TO.N,SDA*%
X108492000Y-73992000D03*
X113742000Y-73992000D03*
%TO.N,PG*%
X106795000Y-67295000D03*
X102000000Y-68250000D03*
%TO.N,INT2*%
X115750000Y-67250000D03*
X112500000Y-67250000D03*
%TO.N,INT1*%
X115000000Y-68750000D03*
X112000000Y-68750000D03*
%TD*%
D27*
%TO.N,GND*%
X105485000Y-75000000D02*
X106750000Y-75000000D01*
X107730000Y-74020000D02*
X107730000Y-72490600D01*
X106750000Y-75000000D02*
X107730000Y-74020000D01*
X120630000Y-70370000D02*
X119775000Y-70370000D01*
X121500000Y-69500000D02*
X120630000Y-70370000D01*
X120945000Y-73055000D02*
X122000000Y-72000000D01*
X119090000Y-73055000D02*
X120945000Y-73055000D01*
X111001801Y-70834301D02*
X110844102Y-70992000D01*
X111001801Y-66756801D02*
X111001801Y-70834301D01*
X110844102Y-70992000D02*
X110270000Y-70992000D01*
X110570000Y-66325000D02*
X111001801Y-66756801D01*
X110250000Y-66325000D02*
X110570000Y-66325000D01*
X111992000Y-72008000D02*
X112000000Y-72000000D01*
X110270000Y-72008000D02*
X111992000Y-72008000D01*
X109598200Y-74000000D02*
X111000000Y-74000000D01*
X109000000Y-73401800D02*
X109598200Y-74000000D01*
X109000000Y-72770000D02*
X109000000Y-73401800D01*
X105299999Y-74814999D02*
X105485000Y-75000000D01*
X118000000Y-81190000D02*
X118190000Y-81190000D01*
X99845010Y-73300010D02*
X99225000Y-72680000D01*
X101399990Y-73300010D02*
X99845010Y-73300010D01*
X102750000Y-71950000D02*
X101399990Y-73300010D01*
X118050000Y-81500000D02*
X118000000Y-81450000D01*
X124500000Y-81500000D02*
X118050000Y-81500000D01*
X112000000Y-81450000D02*
X118000000Y-81450000D01*
X134481054Y-76120000D02*
X134500000Y-76120000D01*
X129101054Y-81500000D02*
X134481054Y-76120000D01*
X124500000Y-81500000D02*
X129101054Y-81500000D01*
X104550000Y-70050000D02*
X106000000Y-71500000D01*
X123284980Y-64715020D02*
X123500000Y-64500000D01*
X123284980Y-70715020D02*
X123284980Y-64715020D01*
X122000000Y-72000000D02*
X123284980Y-70715020D01*
X123500000Y-63287500D02*
X123250000Y-63037500D01*
X123500000Y-64500000D02*
X123500000Y-63287500D01*
X110250000Y-66325000D02*
X110250000Y-63750000D01*
X110250000Y-63750000D02*
X110250000Y-63750000D01*
D28*
X103000000Y-71000000D02*
X102000000Y-71000000D01*
X103500000Y-71000000D02*
X105000000Y-71000000D01*
X104250000Y-70050000D02*
X104950000Y-70050000D01*
X104250000Y-71950000D02*
X104950000Y-71950000D01*
D27*
X118590000Y-70370000D02*
X117840000Y-71120000D01*
X119775000Y-70370000D02*
X118590000Y-70370000D01*
X119044999Y-73009999D02*
X119090000Y-73055000D01*
X119044999Y-72324999D02*
X119044999Y-73009999D01*
X117840000Y-71120000D02*
X119044999Y-72324999D01*
D29*
X105485000Y-74680000D02*
X104500000Y-73695000D01*
X105485000Y-75000000D02*
X105485000Y-74680000D01*
X104500000Y-73695000D02*
X104500000Y-73000000D01*
X104500000Y-73000000D02*
X105000000Y-72500000D01*
X104450000Y-71950000D02*
X104250000Y-71950000D01*
X105000000Y-72500000D02*
X104450000Y-71950000D01*
X105550000Y-71950000D02*
X106000000Y-71500000D01*
X104950000Y-71950000D02*
X105550000Y-71950000D01*
%TO.N,Net-(C1-Pad1)*%
X103515000Y-76000000D02*
X104515000Y-75000000D01*
X101530000Y-76000000D02*
X103515000Y-76000000D01*
X101400000Y-76130000D02*
X101530000Y-76000000D01*
X101400000Y-80000000D02*
X101400000Y-76130000D01*
X103750000Y-74235000D02*
X104515000Y-75000000D01*
X103750000Y-71950000D02*
X103750000Y-74235000D01*
X103250000Y-71950000D02*
X103750000Y-71950000D01*
D27*
%TO.N,+3V3*%
X108030000Y-66325000D02*
X108825000Y-66325000D01*
X108825000Y-66325000D02*
X109508000Y-67008000D01*
X108605798Y-68992000D02*
X109508000Y-68992000D01*
X107730000Y-69867798D02*
X108605798Y-68992000D01*
X109508000Y-67008000D02*
X109508000Y-68992000D01*
X107730000Y-70509400D02*
X107730000Y-69867798D01*
X109508000Y-68992000D02*
X109508000Y-70230000D01*
D28*
X100195000Y-69680000D02*
X100195000Y-71180000D01*
X100195000Y-71180000D02*
X100195000Y-72680000D01*
X100195000Y-68367500D02*
X102062500Y-66500000D01*
X100195000Y-69680000D02*
X100195000Y-68367500D01*
X102062500Y-66500000D02*
X102062500Y-64812500D01*
X102062500Y-64812500D02*
X102062500Y-64812500D01*
D27*
X122000000Y-67645000D02*
X119775000Y-69870000D01*
X122000000Y-66250000D02*
X122000000Y-67645000D01*
X107937500Y-66232500D02*
X108030000Y-66325000D01*
X107937500Y-64812500D02*
X107937500Y-66232500D01*
X107937500Y-65412500D02*
X107937500Y-64812500D01*
X103750000Y-69600000D02*
X106094999Y-67255001D01*
X106094999Y-66655001D02*
X107937500Y-64812500D01*
X106094999Y-67255001D02*
X106094999Y-66655001D01*
X103750000Y-70050000D02*
X103750000Y-69600000D01*
X112930000Y-76915000D02*
X113000000Y-76985000D01*
D28*
X113249999Y-73373999D02*
X111415000Y-75208998D01*
X111415000Y-75208998D02*
X111415000Y-76915000D01*
D27*
X111415000Y-76915000D02*
X112930000Y-76915000D01*
X109970000Y-76915000D02*
X111415000Y-76915000D01*
D28*
X114000000Y-69889998D02*
X113249999Y-70639999D01*
X113249999Y-70639999D02*
X113249999Y-73373999D01*
X114000000Y-66250000D02*
X114000000Y-69889998D01*
D27*
%TO.N,Net-(C5-Pad1)*%
X106000000Y-69250000D02*
X106000000Y-69250000D01*
X106000000Y-69250000D02*
X106000000Y-68500000D01*
X106000000Y-69903602D02*
X106000000Y-69250000D01*
X107730000Y-70992000D02*
X107088398Y-70992000D01*
X107088398Y-70992000D02*
X106000000Y-69903602D01*
X110250000Y-67295000D02*
X110250000Y-68500000D01*
%TO.N,Net-(D1-Pad2)*%
X122887500Y-61100000D02*
X123250000Y-61462500D01*
X119000000Y-61100000D02*
X122887500Y-61100000D01*
D30*
%TO.N,Vin*%
X93980000Y-75380000D02*
X96550000Y-77950000D01*
X93980000Y-71120000D02*
X93980000Y-75380000D01*
X96550000Y-77950000D02*
X98600000Y-80000000D01*
D27*
X122000000Y-78000000D02*
X122050000Y-77950000D01*
X116000000Y-78000000D02*
X116050000Y-77950000D01*
X116000000Y-79515000D02*
X116000000Y-78000000D01*
X122050000Y-79465000D02*
X122000000Y-79515000D01*
X122050000Y-77950000D02*
X122050000Y-79465000D01*
%TO.N,S0_3V3*%
X127437500Y-71602500D02*
X128000000Y-71040000D01*
X123040000Y-76000000D02*
X128000000Y-71040000D01*
X122787500Y-76000000D02*
X123040000Y-76000000D01*
D29*
%TO.N,S0_Vin*%
X121980000Y-80240000D02*
X122000000Y-80220000D01*
D28*
X121985000Y-80500000D02*
X122000000Y-80485000D01*
X120000000Y-80500000D02*
X121985000Y-80500000D01*
X122000000Y-80485000D02*
X127985000Y-80485000D01*
X127985000Y-80485000D02*
X132500000Y-75970000D01*
X132500000Y-73040000D02*
X134500000Y-71040000D01*
X132500000Y-75970000D02*
X132500000Y-73040000D01*
D29*
%TO.N,notS0_Vin*%
X115985000Y-80500000D02*
X116000000Y-80485000D01*
X114000000Y-80500000D02*
X115985000Y-80500000D01*
D28*
X131999990Y-71000010D02*
X134500000Y-68500000D01*
X131999990Y-73896012D02*
X131999990Y-71000010D01*
X128576001Y-77320001D02*
X131999990Y-73896012D01*
X127423999Y-77320001D02*
X128576001Y-77320001D01*
X127303997Y-77199999D02*
X127423999Y-77320001D01*
X120350001Y-77199999D02*
X127303997Y-77199999D01*
X118000000Y-79550000D02*
X120350001Y-77199999D01*
X117065000Y-80485000D02*
X116000000Y-80485000D01*
X118000000Y-79550000D02*
X117065000Y-80485000D01*
D27*
%TO.N,SBWTCK*%
X118590000Y-67922600D02*
X118590000Y-69185000D01*
X112167400Y-61500000D02*
X118590000Y-67922600D01*
X104942081Y-61500000D02*
X112167400Y-61500000D01*
X103240000Y-62000000D02*
X104442081Y-62000000D01*
X104442081Y-62000000D02*
X104942081Y-61500000D01*
%TO.N,SBWTDIO*%
X101850001Y-60849999D02*
X100700000Y-62000000D01*
X112083097Y-60849999D02*
X101850001Y-60849999D01*
X119090000Y-67856902D02*
X112083097Y-60849999D01*
X119090000Y-69185000D02*
X119090000Y-67856902D01*
%TO.N,TXD*%
X118090000Y-67988299D02*
X113814190Y-63712489D01*
X118090000Y-69185000D02*
X118090000Y-67988299D01*
X99310001Y-63150001D02*
X105349999Y-63150001D01*
X98160000Y-62000000D02*
X99310001Y-63150001D01*
X105349999Y-63150001D02*
X106500000Y-62000000D01*
X112601700Y-62500000D02*
X113814189Y-63712489D01*
X106500000Y-62000000D02*
X112101700Y-62000000D01*
X112101700Y-62000000D02*
X112601700Y-62500000D01*
%TO.N,RXD*%
X117590000Y-68053998D02*
X117590000Y-69185000D01*
X95620000Y-62000000D02*
X97170011Y-63550011D01*
X97170011Y-63550011D02*
X105849989Y-63550011D01*
X105849989Y-63550011D02*
X106900000Y-62500000D01*
X112036002Y-62500000D02*
X117590000Y-68053998D01*
X106900000Y-62500000D02*
X112036002Y-62500000D01*
%TO.N,Net-(L1-Pad1)*%
X103250000Y-67187500D02*
X103937500Y-66500000D01*
X103250000Y-70050000D02*
X103250000Y-67187500D01*
%TO.N,S0_INT*%
X115905000Y-70370000D02*
X114630000Y-70370000D01*
X114630000Y-70370000D02*
X114000000Y-71000000D01*
X114000000Y-71000000D02*
X114000000Y-71000000D01*
X113350002Y-79550000D02*
X117200001Y-75700001D01*
X112000000Y-79550000D02*
X113350002Y-79550000D01*
X120912501Y-75700001D02*
X121212500Y-76000000D01*
X117200001Y-75700001D02*
X120912501Y-75700001D01*
%TO.N,SCL*%
X107088398Y-72008000D02*
X106000000Y-73096398D01*
X107730000Y-72008000D02*
X107088398Y-72008000D01*
X106000000Y-73096398D02*
X106000000Y-73500000D01*
X106000000Y-73500000D02*
X106000000Y-73500000D01*
X115365696Y-71370000D02*
X114750000Y-71985696D01*
X115905000Y-71370000D02*
X115365696Y-71370000D01*
X113735000Y-76015000D02*
X114750000Y-75000000D01*
X113000000Y-76015000D02*
X113735000Y-76015000D01*
X114750000Y-71985696D02*
X114750000Y-75000000D01*
%TO.N,SDA*%
X113737500Y-72432498D02*
X115299998Y-70870000D01*
X115299998Y-70870000D02*
X115905000Y-70870000D01*
X108492000Y-72770000D02*
X108492000Y-73992000D01*
X108492000Y-73992000D02*
X108492000Y-73992000D01*
X113737500Y-73987500D02*
X113742000Y-73992000D01*
X113737500Y-72432498D02*
X113737500Y-73987500D01*
X109970000Y-75470000D02*
X108492000Y-73992000D01*
X109970000Y-75945000D02*
X109970000Y-75470000D01*
%TO.N,PG*%
X102750000Y-70050000D02*
X102750000Y-69000000D01*
X102750000Y-69000000D02*
X102000000Y-68250000D01*
X108030000Y-67295000D02*
X106795000Y-67295000D01*
X106795000Y-67295000D02*
X106795000Y-67295000D01*
X102000000Y-68250000D02*
X102000000Y-68250000D01*
%TO.N,L0*%
X122700001Y-69550001D02*
X122700001Y-65200001D01*
X122700001Y-65200001D02*
X121400000Y-63900000D01*
X119775000Y-71870000D02*
X120380002Y-71870000D01*
X121400000Y-63900000D02*
X119000000Y-63900000D01*
X120380002Y-71870000D02*
X122700001Y-69550001D01*
%TO.N,SW0*%
X125500000Y-61125000D02*
X125500000Y-64875000D01*
X125500000Y-70500000D02*
X125500000Y-64875000D01*
X116500000Y-74500000D02*
X121500000Y-74500000D01*
X121500000Y-74500000D02*
X125500000Y-70500000D01*
X116590000Y-73055000D02*
X116590000Y-73685000D01*
X116590000Y-73685000D02*
X116500000Y-73775000D01*
X116500000Y-73775000D02*
X116500000Y-74500000D01*
%TO.N,INT2*%
X117090000Y-69185000D02*
X117065000Y-69185000D01*
X117065000Y-69185000D02*
X117025001Y-69145001D01*
X117090000Y-68590000D02*
X117090000Y-69185000D01*
X115750000Y-67250000D02*
X117090000Y-68590000D01*
X112700001Y-72336001D02*
X112700001Y-67450001D01*
X112700001Y-67450001D02*
X112500000Y-67250000D01*
X112336001Y-72700001D02*
X112700001Y-72336001D01*
X110479401Y-72700001D02*
X112336001Y-72700001D01*
X110270000Y-72490600D02*
X110479401Y-72700001D01*
%TO.N,INT1*%
X115905000Y-69870000D02*
X115905000Y-69655000D01*
X115905000Y-69655000D02*
X115000000Y-68750000D01*
X115000000Y-68750000D02*
X115000000Y-68750000D01*
X110270000Y-71500000D02*
X110901800Y-71500000D01*
X112000000Y-70401800D02*
X112000000Y-68750000D01*
X110901800Y-71500000D02*
X112000000Y-70401800D01*
%TD*%
D31*
%TO.N,GND*%
G36*
X136856775Y-59698147D02*
G01*
X137199967Y-59801763D01*
X137516489Y-59970062D01*
X137794299Y-60196637D01*
X138022806Y-60472856D01*
X138193310Y-60788197D01*
X138299319Y-61130656D01*
X138340001Y-61517722D01*
X138340000Y-81467721D01*
X138301853Y-81856776D01*
X138198238Y-82199964D01*
X138029939Y-82516489D01*
X137803365Y-82794296D01*
X137527146Y-83022805D01*
X137211803Y-83193310D01*
X136869344Y-83299319D01*
X136482288Y-83340000D01*
X81532279Y-83340000D01*
X81143224Y-83301853D01*
X80800036Y-83198238D01*
X80483511Y-83029939D01*
X80205704Y-82803365D01*
X79977195Y-82527146D01*
X79806690Y-82211803D01*
X79700681Y-81869344D01*
X79698648Y-81850000D01*
X110911928Y-81850000D01*
X110924188Y-81974482D01*
X110960498Y-82094180D01*
X111019463Y-82204494D01*
X111098815Y-82301185D01*
X111195506Y-82380537D01*
X111305820Y-82439502D01*
X111425518Y-82475812D01*
X111550000Y-82488072D01*
X111714250Y-82485000D01*
X111873000Y-82326250D01*
X111873000Y-81577000D01*
X112127000Y-81577000D01*
X112127000Y-82326250D01*
X112285750Y-82485000D01*
X112450000Y-82488072D01*
X112574482Y-82475812D01*
X112694180Y-82439502D01*
X112804494Y-82380537D01*
X112901185Y-82301185D01*
X112980537Y-82204494D01*
X113039502Y-82094180D01*
X113075812Y-81974482D01*
X113088072Y-81850000D01*
X116911928Y-81850000D01*
X116924188Y-81974482D01*
X116960498Y-82094180D01*
X117019463Y-82204494D01*
X117098815Y-82301185D01*
X117195506Y-82380537D01*
X117305820Y-82439502D01*
X117425518Y-82475812D01*
X117550000Y-82488072D01*
X117714250Y-82485000D01*
X117873000Y-82326250D01*
X117873000Y-81577000D01*
X118127000Y-81577000D01*
X118127000Y-82326250D01*
X118285750Y-82485000D01*
X118450000Y-82488072D01*
X118574482Y-82475812D01*
X118694180Y-82439502D01*
X118804494Y-82380537D01*
X118901185Y-82301185D01*
X118980537Y-82204494D01*
X119039502Y-82094180D01*
X119075812Y-81974482D01*
X119088072Y-81850000D01*
X119085000Y-81735750D01*
X118926250Y-81577000D01*
X118127000Y-81577000D01*
X117873000Y-81577000D01*
X117073750Y-81577000D01*
X116915000Y-81735750D01*
X116911928Y-81850000D01*
X113088072Y-81850000D01*
X113085000Y-81735750D01*
X112926250Y-81577000D01*
X112127000Y-81577000D01*
X111873000Y-81577000D01*
X111073750Y-81577000D01*
X110915000Y-81735750D01*
X110911928Y-81850000D01*
X79698648Y-81850000D01*
X79660000Y-81482288D01*
X79660000Y-71247000D01*
X86220000Y-71247000D01*
X86220000Y-72372000D01*
X86278594Y-72712919D01*
X86402573Y-73035856D01*
X86587171Y-73328401D01*
X86825295Y-73579311D01*
X87107793Y-73778944D01*
X87423810Y-73919629D01*
X87579957Y-73958933D01*
X87853000Y-73841206D01*
X87853000Y-71247000D01*
X88107000Y-71247000D01*
X88107000Y-73841206D01*
X88380043Y-73958933D01*
X88536190Y-73919629D01*
X88852207Y-73778944D01*
X89134705Y-73579311D01*
X89372829Y-73328401D01*
X89557427Y-73035856D01*
X89681406Y-72712919D01*
X89724429Y-72462596D01*
X92095000Y-72462596D01*
X92122275Y-72739523D01*
X92230061Y-73094847D01*
X92405097Y-73422317D01*
X92640655Y-73709345D01*
X92927683Y-73944903D01*
X93095001Y-74034336D01*
X93095001Y-75336521D01*
X93090719Y-75380000D01*
X93107805Y-75553490D01*
X93158412Y-75720313D01*
X93240590Y-75874059D01*
X93323468Y-75975046D01*
X93323471Y-75975049D01*
X93351184Y-76008817D01*
X93384951Y-76036529D01*
X95543465Y-78195044D01*
X95554774Y-78251898D01*
X95632795Y-78440256D01*
X95746063Y-78609774D01*
X95890226Y-78753937D01*
X96059744Y-78867205D01*
X96248102Y-78945226D01*
X96304957Y-78956535D01*
X97336928Y-79988507D01*
X97336928Y-80625000D01*
X97353992Y-80798254D01*
X97404528Y-80964850D01*
X97486595Y-81118386D01*
X97597038Y-81252962D01*
X97731614Y-81363405D01*
X97885150Y-81445472D01*
X98051746Y-81496008D01*
X98225000Y-81513072D01*
X98975000Y-81513072D01*
X99148254Y-81496008D01*
X99314850Y-81445472D01*
X99468386Y-81363405D01*
X99602962Y-81252962D01*
X99713405Y-81118386D01*
X99795472Y-80964850D01*
X99846008Y-80798254D01*
X99863072Y-80625000D01*
X99863072Y-79375000D01*
X99846008Y-79201746D01*
X99795472Y-79035150D01*
X99713405Y-78881614D01*
X99602962Y-78747038D01*
X99468386Y-78636595D01*
X99314850Y-78554528D01*
X99148254Y-78503992D01*
X98975000Y-78486928D01*
X98338507Y-78486928D01*
X97556535Y-77704957D01*
X97545226Y-77648102D01*
X97467205Y-77459744D01*
X97353937Y-77290226D01*
X97209774Y-77146063D01*
X97040256Y-77032795D01*
X96851898Y-76954774D01*
X96795044Y-76943465D01*
X96431579Y-76580000D01*
X97206928Y-76580000D01*
X97219188Y-76704482D01*
X97255498Y-76824180D01*
X97314463Y-76934494D01*
X97393815Y-77031185D01*
X97490506Y-77110537D01*
X97600820Y-77169502D01*
X97720518Y-77205812D01*
X97845000Y-77218072D01*
X98184250Y-77215000D01*
X98343000Y-77056250D01*
X98343000Y-76127000D01*
X98597000Y-76127000D01*
X98597000Y-77056250D01*
X98755750Y-77215000D01*
X99095000Y-77218072D01*
X99219482Y-77205812D01*
X99339180Y-77169502D01*
X99449494Y-77110537D01*
X99546185Y-77031185D01*
X99625537Y-76934494D01*
X99684502Y-76824180D01*
X99720812Y-76704482D01*
X99733072Y-76580000D01*
X99730000Y-76285750D01*
X99571250Y-76127000D01*
X98597000Y-76127000D01*
X98343000Y-76127000D01*
X97368750Y-76127000D01*
X97210000Y-76285750D01*
X97206928Y-76580000D01*
X96431579Y-76580000D01*
X95271579Y-75420000D01*
X97206928Y-75420000D01*
X97210000Y-75714250D01*
X97368750Y-75873000D01*
X98343000Y-75873000D01*
X98343000Y-74943750D01*
X98597000Y-74943750D01*
X98597000Y-75873000D01*
X99571250Y-75873000D01*
X99730000Y-75714250D01*
X99733072Y-75420000D01*
X99720812Y-75295518D01*
X99684502Y-75175820D01*
X99625537Y-75065506D01*
X99546185Y-74968815D01*
X99449494Y-74889463D01*
X99339180Y-74830498D01*
X99219482Y-74794188D01*
X99095000Y-74781928D01*
X98755750Y-74785000D01*
X98597000Y-74943750D01*
X98343000Y-74943750D01*
X98184250Y-74785000D01*
X97845000Y-74781928D01*
X97720518Y-74794188D01*
X97600820Y-74830498D01*
X97490506Y-74889463D01*
X97393815Y-74968815D01*
X97314463Y-75065506D01*
X97255498Y-75175820D01*
X97219188Y-75295518D01*
X97206928Y-75420000D01*
X95271579Y-75420000D01*
X94865000Y-75013422D01*
X94865000Y-74034336D01*
X95032317Y-73944903D01*
X95319345Y-73709345D01*
X95554903Y-73422317D01*
X95729939Y-73094848D01*
X95758710Y-73000000D01*
X98291928Y-73000000D01*
X98304188Y-73124482D01*
X98340498Y-73244180D01*
X98399463Y-73354494D01*
X98478815Y-73451185D01*
X98575506Y-73530537D01*
X98685820Y-73589502D01*
X98805518Y-73625812D01*
X98930000Y-73638072D01*
X98939250Y-73635000D01*
X99098000Y-73476250D01*
X99098000Y-72807000D01*
X98453750Y-72807000D01*
X98295000Y-72965750D01*
X98291928Y-73000000D01*
X95758710Y-73000000D01*
X95837725Y-72739524D01*
X95865000Y-72462597D01*
X95865000Y-71500000D01*
X98291928Y-71500000D01*
X98304188Y-71624482D01*
X98340498Y-71744180D01*
X98399463Y-71854494D01*
X98461429Y-71930000D01*
X98399463Y-72005506D01*
X98340498Y-72115820D01*
X98304188Y-72235518D01*
X98291928Y-72360000D01*
X98295000Y-72394250D01*
X98453750Y-72553000D01*
X99098000Y-72553000D01*
X99098000Y-71307000D01*
X98453750Y-71307000D01*
X98295000Y-71465750D01*
X98291928Y-71500000D01*
X95865000Y-71500000D01*
X95865000Y-70000000D01*
X98291928Y-70000000D01*
X98304188Y-70124482D01*
X98340498Y-70244180D01*
X98399463Y-70354494D01*
X98461429Y-70430000D01*
X98399463Y-70505506D01*
X98340498Y-70615820D01*
X98304188Y-70735518D01*
X98291928Y-70860000D01*
X98295000Y-70894250D01*
X98453750Y-71053000D01*
X99098000Y-71053000D01*
X99098000Y-69807000D01*
X98453750Y-69807000D01*
X98295000Y-69965750D01*
X98291928Y-70000000D01*
X95865000Y-70000000D01*
X95865000Y-69777403D01*
X95837725Y-69500476D01*
X95795113Y-69360000D01*
X98291928Y-69360000D01*
X98295000Y-69394250D01*
X98453750Y-69553000D01*
X99098000Y-69553000D01*
X99098000Y-68883750D01*
X98939250Y-68725000D01*
X98930000Y-68721928D01*
X98805518Y-68734188D01*
X98685820Y-68770498D01*
X98575506Y-68829463D01*
X98478815Y-68908815D01*
X98399463Y-69005506D01*
X98340498Y-69115820D01*
X98304188Y-69235518D01*
X98291928Y-69360000D01*
X95795113Y-69360000D01*
X95729939Y-69145152D01*
X95554903Y-68817683D01*
X95319345Y-68530655D01*
X95032317Y-68295097D01*
X94704848Y-68120061D01*
X94349524Y-68012275D01*
X93980000Y-67975880D01*
X93610477Y-68012275D01*
X93255153Y-68120061D01*
X92927684Y-68295097D01*
X92640656Y-68530655D01*
X92405098Y-68817683D01*
X92230062Y-69145152D01*
X92122276Y-69500476D01*
X92095001Y-69777403D01*
X92095000Y-72462596D01*
X89724429Y-72462596D01*
X89740000Y-72372000D01*
X89740000Y-71247000D01*
X88107000Y-71247000D01*
X87853000Y-71247000D01*
X86220000Y-71247000D01*
X79660000Y-71247000D01*
X79660000Y-69868000D01*
X86220000Y-69868000D01*
X86220000Y-70993000D01*
X87853000Y-70993000D01*
X87853000Y-68398794D01*
X88107000Y-68398794D01*
X88107000Y-70993000D01*
X89740000Y-70993000D01*
X89740000Y-69868000D01*
X89681406Y-69527081D01*
X89557427Y-69204144D01*
X89372829Y-68911599D01*
X89134705Y-68660689D01*
X88852207Y-68461056D01*
X88536190Y-68320371D01*
X88380043Y-68281067D01*
X88107000Y-68398794D01*
X87853000Y-68398794D01*
X87579957Y-68281067D01*
X87423810Y-68320371D01*
X87107793Y-68461056D01*
X86825295Y-68660689D01*
X86587171Y-68911599D01*
X86402573Y-69204144D01*
X86278594Y-69527081D01*
X86220000Y-69868000D01*
X79660000Y-69868000D01*
X79660000Y-62850000D01*
X86511928Y-62850000D01*
X86524188Y-62974482D01*
X86560498Y-63094180D01*
X86619463Y-63204494D01*
X86698815Y-63301185D01*
X86795506Y-63380537D01*
X86905820Y-63439502D01*
X87025518Y-63475812D01*
X87150000Y-63488072D01*
X87714250Y-63485000D01*
X87873000Y-63326250D01*
X87873000Y-62127000D01*
X86673750Y-62127000D01*
X86515000Y-62285750D01*
X86511928Y-62850000D01*
X79660000Y-62850000D01*
X79660000Y-61532279D01*
X79697482Y-61150000D01*
X86511928Y-61150000D01*
X86515000Y-61714250D01*
X86673750Y-61873000D01*
X87873000Y-61873000D01*
X87873000Y-60673750D01*
X88127000Y-60673750D01*
X88127000Y-61873000D01*
X88147000Y-61873000D01*
X88147000Y-62127000D01*
X88127000Y-62127000D01*
X88127000Y-63326250D01*
X88285750Y-63485000D01*
X88850000Y-63488072D01*
X88974482Y-63475812D01*
X89094180Y-63439502D01*
X89204494Y-63380537D01*
X89301185Y-63301185D01*
X89380537Y-63204494D01*
X89439502Y-63094180D01*
X89461513Y-63021620D01*
X89593368Y-63153475D01*
X89836589Y-63315990D01*
X90106842Y-63427932D01*
X90393740Y-63485000D01*
X90686260Y-63485000D01*
X90973158Y-63427932D01*
X91243411Y-63315990D01*
X91486632Y-63153475D01*
X91693475Y-62946632D01*
X91810000Y-62772240D01*
X91926525Y-62946632D01*
X92133368Y-63153475D01*
X92376589Y-63315990D01*
X92646842Y-63427932D01*
X92933740Y-63485000D01*
X93226260Y-63485000D01*
X93513158Y-63427932D01*
X93783411Y-63315990D01*
X94026632Y-63153475D01*
X94233475Y-62946632D01*
X94350000Y-62772240D01*
X94466525Y-62946632D01*
X94673368Y-63153475D01*
X94916589Y-63315990D01*
X95186842Y-63427932D01*
X95473740Y-63485000D01*
X95766260Y-63485000D01*
X96015897Y-63435344D01*
X96624757Y-64044204D01*
X96647773Y-64072249D01*
X96725995Y-64136444D01*
X96759691Y-64164098D01*
X96887377Y-64232348D01*
X97025926Y-64274376D01*
X97170011Y-64288567D01*
X97206116Y-64285011D01*
X101170173Y-64285011D01*
X101145295Y-64322244D01*
X101067274Y-64510602D01*
X101027500Y-64710561D01*
X101027500Y-64914439D01*
X101067274Y-65114398D01*
X101145295Y-65302756D01*
X101213657Y-65405067D01*
X101195208Y-65420208D01*
X101085542Y-65553836D01*
X101004053Y-65706291D01*
X100953872Y-65871715D01*
X100936928Y-66043750D01*
X100936928Y-66515415D01*
X99667185Y-67785158D01*
X99637237Y-67809736D01*
X99612659Y-67839684D01*
X99612655Y-67839688D01*
X99598529Y-67856901D01*
X99539139Y-67929267D01*
X99513218Y-67977762D01*
X99466246Y-68065641D01*
X99421359Y-68213614D01*
X99406203Y-68367500D01*
X99410001Y-68406062D01*
X99410001Y-68825749D01*
X99352000Y-68883750D01*
X99352000Y-69150237D01*
X99321726Y-69206875D01*
X99277023Y-69354243D01*
X99261928Y-69507500D01*
X99261928Y-69852500D01*
X99277023Y-70005757D01*
X99321726Y-70153125D01*
X99352000Y-70209763D01*
X99352000Y-70650237D01*
X99321726Y-70706875D01*
X99277023Y-70854243D01*
X99261928Y-71007500D01*
X99261928Y-71352500D01*
X99277023Y-71505757D01*
X99321726Y-71653125D01*
X99352000Y-71709763D01*
X99352000Y-72150237D01*
X99321726Y-72206875D01*
X99277023Y-72354243D01*
X99261928Y-72507500D01*
X99261928Y-72852500D01*
X99277023Y-73005757D01*
X99321726Y-73153125D01*
X99352000Y-73209763D01*
X99352000Y-73476250D01*
X99510750Y-73635000D01*
X99520000Y-73638072D01*
X99644482Y-73625812D01*
X99764180Y-73589502D01*
X99771316Y-73585688D01*
X99894243Y-73622977D01*
X100047500Y-73638072D01*
X100342500Y-73638072D01*
X100495757Y-73622977D01*
X100643125Y-73578274D01*
X100778940Y-73505679D01*
X100897983Y-73407983D01*
X100995679Y-73288940D01*
X101068274Y-73153125D01*
X101112977Y-73005757D01*
X101128072Y-72852500D01*
X101128072Y-72507500D01*
X101112977Y-72354243D01*
X101068274Y-72206875D01*
X100995679Y-72071060D01*
X100980000Y-72051955D01*
X100980000Y-71808045D01*
X100995679Y-71788940D01*
X101068274Y-71653125D01*
X101112977Y-71505757D01*
X101128072Y-71352500D01*
X101128072Y-71007500D01*
X101112977Y-70854243D01*
X101068274Y-70706875D01*
X100995679Y-70571060D01*
X100980000Y-70551955D01*
X100980000Y-70308045D01*
X100995679Y-70288940D01*
X101068274Y-70153125D01*
X101112977Y-70005757D01*
X101128072Y-69852500D01*
X101128072Y-69507500D01*
X101112977Y-69354243D01*
X101068274Y-69206875D01*
X100995679Y-69071060D01*
X100980000Y-69051955D01*
X100980000Y-68692657D01*
X101038745Y-68633912D01*
X101082795Y-68740256D01*
X101196063Y-68909774D01*
X101340226Y-69053937D01*
X101509744Y-69167205D01*
X101698102Y-69245226D01*
X101898061Y-69285000D01*
X101995553Y-69285000D01*
X102015001Y-69304447D01*
X102015000Y-69623391D01*
X101999188Y-69675518D01*
X101986928Y-69800000D01*
X101986928Y-70300000D01*
X101999188Y-70424482D01*
X102035498Y-70544180D01*
X102062774Y-70595208D01*
X102065000Y-70714250D01*
X102097243Y-70746493D01*
X102071836Y-70872998D01*
X102065000Y-70872998D01*
X102065000Y-70998534D01*
X102064829Y-71090355D01*
X102065000Y-71091223D01*
X102065000Y-71127002D01*
X102072048Y-71127002D01*
X102097013Y-71253737D01*
X102065000Y-71285750D01*
X102062780Y-71404461D01*
X102028501Y-71473450D01*
X101995765Y-71594174D01*
X101990000Y-71668250D01*
X102148750Y-71827000D01*
X102187933Y-71827000D01*
X102248815Y-71901185D01*
X102345506Y-71980537D01*
X102455820Y-72039502D01*
X102486928Y-72048939D01*
X102486928Y-72073000D01*
X102148750Y-72073000D01*
X101990000Y-72231750D01*
X101995765Y-72305826D01*
X102028501Y-72426550D01*
X102084160Y-72538568D01*
X102160604Y-72637575D01*
X102254894Y-72719767D01*
X102363407Y-72781984D01*
X102481973Y-72821835D01*
X102591250Y-72835000D01*
X102729426Y-72696824D01*
X102770506Y-72730537D01*
X102843078Y-72769328D01*
X102908750Y-72835000D01*
X102990000Y-72825211D01*
X102990001Y-74197668D01*
X102986324Y-74235000D01*
X102990001Y-74272333D01*
X103000998Y-74383986D01*
X103008697Y-74409365D01*
X103044454Y-74527246D01*
X103115026Y-74659276D01*
X103185900Y-74745635D01*
X103210000Y-74775001D01*
X103238997Y-74798799D01*
X103440198Y-75000000D01*
X103200199Y-75240000D01*
X102763971Y-75240000D01*
X102744502Y-75175820D01*
X102685537Y-75065506D01*
X102606185Y-74968815D01*
X102509494Y-74889463D01*
X102399180Y-74830498D01*
X102279482Y-74794188D01*
X102155000Y-74781928D01*
X100905000Y-74781928D01*
X100780518Y-74794188D01*
X100660820Y-74830498D01*
X100550506Y-74889463D01*
X100453815Y-74968815D01*
X100374463Y-75065506D01*
X100315498Y-75175820D01*
X100279188Y-75295518D01*
X100266928Y-75420000D01*
X100266928Y-76580000D01*
X100279188Y-76704482D01*
X100315498Y-76824180D01*
X100374463Y-76934494D01*
X100453815Y-77031185D01*
X100550506Y-77110537D01*
X100640001Y-77158374D01*
X100640000Y-78578661D01*
X100531614Y-78636595D01*
X100397038Y-78747038D01*
X100286595Y-78881614D01*
X100204528Y-79035150D01*
X100153992Y-79201746D01*
X100136928Y-79375000D01*
X100136928Y-80625000D01*
X100153992Y-80798254D01*
X100204528Y-80964850D01*
X100286595Y-81118386D01*
X100397038Y-81252962D01*
X100531614Y-81363405D01*
X100685150Y-81445472D01*
X100851746Y-81496008D01*
X101025000Y-81513072D01*
X101775000Y-81513072D01*
X101948254Y-81496008D01*
X102114850Y-81445472D01*
X102268386Y-81363405D01*
X102402962Y-81252962D01*
X102513405Y-81118386D01*
X102595472Y-80964850D01*
X102646008Y-80798254D01*
X102663072Y-80625000D01*
X102663072Y-79375000D01*
X102646008Y-79201746D01*
X102595472Y-79035150D01*
X102513405Y-78881614D01*
X102402962Y-78747038D01*
X102268386Y-78636595D01*
X102160000Y-78578661D01*
X102160000Y-77217580D01*
X102279482Y-77205812D01*
X102399180Y-77169502D01*
X102509494Y-77110537D01*
X102606185Y-77031185D01*
X102685537Y-76934494D01*
X102744502Y-76824180D01*
X102763971Y-76760000D01*
X103477678Y-76760000D01*
X103515000Y-76763676D01*
X103552322Y-76760000D01*
X103552333Y-76760000D01*
X103663986Y-76749003D01*
X103807247Y-76705546D01*
X103939276Y-76634974D01*
X104055001Y-76540001D01*
X104078804Y-76510998D01*
X104631730Y-75958072D01*
X104662500Y-75958072D01*
X104815757Y-75942977D01*
X104938684Y-75905688D01*
X104945820Y-75909502D01*
X105065518Y-75945812D01*
X105190000Y-75958072D01*
X105199250Y-75955000D01*
X105358000Y-75796250D01*
X105358000Y-75529763D01*
X105388274Y-75473125D01*
X105432977Y-75325757D01*
X105448072Y-75172500D01*
X105448072Y-75127000D01*
X105612000Y-75127000D01*
X105612000Y-75796250D01*
X105770750Y-75955000D01*
X105780000Y-75958072D01*
X105904482Y-75945812D01*
X106024180Y-75909502D01*
X106134494Y-75850537D01*
X106231185Y-75771185D01*
X106310537Y-75674494D01*
X106369502Y-75564180D01*
X106405812Y-75444482D01*
X106418072Y-75320000D01*
X106415000Y-75285750D01*
X106256250Y-75127000D01*
X105612000Y-75127000D01*
X105448072Y-75127000D01*
X105448072Y-74853000D01*
X105612000Y-74853000D01*
X105612000Y-74873000D01*
X106256250Y-74873000D01*
X106415000Y-74714250D01*
X106418072Y-74680000D01*
X106405812Y-74555518D01*
X106377965Y-74463718D01*
X106490256Y-74417205D01*
X106659774Y-74303937D01*
X106803937Y-74159774D01*
X106917205Y-73990256D01*
X106995226Y-73801898D01*
X107035000Y-73601939D01*
X107035000Y-73398061D01*
X106995941Y-73201696D01*
X107066562Y-73237542D01*
X107187002Y-73271308D01*
X107311715Y-73280929D01*
X107444250Y-73278000D01*
X107602998Y-73119252D01*
X107602998Y-73278000D01*
X107709032Y-73278000D01*
X107712014Y-73308275D01*
X107688063Y-73332226D01*
X107574795Y-73501744D01*
X107496774Y-73690102D01*
X107457000Y-73890061D01*
X107457000Y-74093939D01*
X107496774Y-74293898D01*
X107574795Y-74482256D01*
X107688063Y-74651774D01*
X107832226Y-74795937D01*
X108001744Y-74909205D01*
X108190102Y-74987226D01*
X108390061Y-75027000D01*
X108487554Y-75027000D01*
X109045124Y-75584571D01*
X109027023Y-75644243D01*
X109011928Y-75797500D01*
X109011928Y-76092500D01*
X109027023Y-76245757D01*
X109071726Y-76393125D01*
X109091436Y-76430000D01*
X109071726Y-76466875D01*
X109027023Y-76614243D01*
X109011928Y-76767500D01*
X109011928Y-77062500D01*
X109027023Y-77215757D01*
X109071726Y-77363125D01*
X109144321Y-77498940D01*
X109242017Y-77617983D01*
X109361060Y-77715679D01*
X109496875Y-77788274D01*
X109644243Y-77832977D01*
X109797500Y-77848072D01*
X110142500Y-77848072D01*
X110295757Y-77832977D01*
X110443125Y-77788274D01*
X110578940Y-77715679D01*
X110658970Y-77650000D01*
X111133731Y-77650000D01*
X111261114Y-77688641D01*
X111415000Y-77703798D01*
X111568887Y-77688641D01*
X111696270Y-77650000D01*
X112240845Y-77650000D01*
X112272017Y-77687983D01*
X112391060Y-77785679D01*
X112526875Y-77858274D01*
X112674243Y-77902977D01*
X112827500Y-77918072D01*
X113172500Y-77918072D01*
X113325757Y-77902977D01*
X113473125Y-77858274D01*
X113608940Y-77785679D01*
X113727983Y-77687983D01*
X113825679Y-77568940D01*
X113898274Y-77433125D01*
X113942977Y-77285757D01*
X113958072Y-77132500D01*
X113958072Y-76837500D01*
X113946395Y-76718947D01*
X114017633Y-76697337D01*
X114145320Y-76629087D01*
X114257238Y-76537238D01*
X114280258Y-76509188D01*
X114754446Y-76035000D01*
X114851939Y-76035000D01*
X115051898Y-75995226D01*
X115240256Y-75917205D01*
X115409774Y-75803937D01*
X115553937Y-75659774D01*
X115667205Y-75490256D01*
X115745226Y-75301898D01*
X115785000Y-75101939D01*
X115785000Y-74898061D01*
X115745226Y-74698102D01*
X115667205Y-74509744D01*
X115553937Y-74340226D01*
X115485000Y-74271289D01*
X115485000Y-73143072D01*
X115816928Y-73143072D01*
X115816928Y-73485000D01*
X115817656Y-73492391D01*
X115791935Y-73577181D01*
X115775635Y-73630915D01*
X115761444Y-73775000D01*
X115765000Y-73811105D01*
X115765000Y-74463895D01*
X115761444Y-74500000D01*
X115775635Y-74644085D01*
X115817663Y-74782633D01*
X115885913Y-74910320D01*
X115977762Y-75022238D01*
X116089680Y-75114087D01*
X116217367Y-75182337D01*
X116286996Y-75203459D01*
X116282796Y-75209745D01*
X116204775Y-75398103D01*
X116165001Y-75598062D01*
X116165001Y-75695554D01*
X113045556Y-78815000D01*
X112990957Y-78815000D01*
X112980537Y-78795506D01*
X112901185Y-78698815D01*
X112804494Y-78619463D01*
X112694180Y-78560498D01*
X112574482Y-78524188D01*
X112450000Y-78511928D01*
X111550000Y-78511928D01*
X111425518Y-78524188D01*
X111305820Y-78560498D01*
X111195506Y-78619463D01*
X111098815Y-78698815D01*
X111019463Y-78795506D01*
X110960498Y-78905820D01*
X110924188Y-79025518D01*
X110911928Y-79150000D01*
X110911928Y-79950000D01*
X110924188Y-80074482D01*
X110960498Y-80194180D01*
X111019463Y-80304494D01*
X111098815Y-80401185D01*
X111195506Y-80480537D01*
X111231918Y-80500000D01*
X111195506Y-80519463D01*
X111098815Y-80598815D01*
X111019463Y-80695506D01*
X110960498Y-80805820D01*
X110924188Y-80925518D01*
X110911928Y-81050000D01*
X110915000Y-81164250D01*
X111073750Y-81323000D01*
X111873000Y-81323000D01*
X111873000Y-81303000D01*
X112127000Y-81303000D01*
X112127000Y-81323000D01*
X112926250Y-81323000D01*
X113010857Y-81238393D01*
X113019463Y-81254494D01*
X113098815Y-81351185D01*
X113195506Y-81430537D01*
X113305820Y-81489502D01*
X113425518Y-81525812D01*
X113550000Y-81538072D01*
X114450000Y-81538072D01*
X114574482Y-81525812D01*
X114694180Y-81489502D01*
X114804494Y-81430537D01*
X114901185Y-81351185D01*
X114976018Y-81260000D01*
X115359770Y-81260000D01*
X115391060Y-81285679D01*
X115526875Y-81358274D01*
X115674243Y-81402977D01*
X115827500Y-81418072D01*
X116172500Y-81418072D01*
X116325757Y-81402977D01*
X116473125Y-81358274D01*
X116608940Y-81285679D01*
X116628045Y-81270000D01*
X117020750Y-81270000D01*
X117073750Y-81323000D01*
X117873000Y-81323000D01*
X117873000Y-81303000D01*
X118127000Y-81303000D01*
X118127000Y-81323000D01*
X118926250Y-81323000D01*
X119010857Y-81238393D01*
X119019463Y-81254494D01*
X119098815Y-81351185D01*
X119195506Y-81430537D01*
X119305820Y-81489502D01*
X119425518Y-81525812D01*
X119550000Y-81538072D01*
X120450000Y-81538072D01*
X120574482Y-81525812D01*
X120694180Y-81489502D01*
X120804494Y-81430537D01*
X120901185Y-81351185D01*
X120955501Y-81285000D01*
X121390233Y-81285000D01*
X121391060Y-81285679D01*
X121526875Y-81358274D01*
X121674243Y-81402977D01*
X121827500Y-81418072D01*
X122172500Y-81418072D01*
X122325757Y-81402977D01*
X122473125Y-81358274D01*
X122608940Y-81285679D01*
X122628045Y-81270000D01*
X127946447Y-81270000D01*
X127985000Y-81273797D01*
X128023553Y-81270000D01*
X128023561Y-81270000D01*
X128138887Y-81258641D01*
X128286860Y-81213754D01*
X128423233Y-81140862D01*
X128542764Y-81042764D01*
X128567347Y-81012810D01*
X133027817Y-76552341D01*
X133057764Y-76527764D01*
X133069586Y-76513359D01*
X133103175Y-76624099D01*
X133228359Y-76886920D01*
X133402412Y-77120269D01*
X133618645Y-77315178D01*
X133868748Y-77464157D01*
X134143109Y-77561481D01*
X134373000Y-77440814D01*
X134373000Y-76247000D01*
X134627000Y-76247000D01*
X134627000Y-77440814D01*
X134856891Y-77561481D01*
X135131252Y-77464157D01*
X135381355Y-77315178D01*
X135597588Y-77120269D01*
X135771641Y-76886920D01*
X135896825Y-76624099D01*
X135941476Y-76476890D01*
X135820155Y-76247000D01*
X134627000Y-76247000D01*
X134373000Y-76247000D01*
X134353000Y-76247000D01*
X134353000Y-75993000D01*
X134373000Y-75993000D01*
X134373000Y-75973000D01*
X134627000Y-75973000D01*
X134627000Y-75993000D01*
X135820155Y-75993000D01*
X135941476Y-75763110D01*
X135896825Y-75615901D01*
X135771641Y-75353080D01*
X135597588Y-75119731D01*
X135381355Y-74924822D01*
X135264466Y-74855195D01*
X135446632Y-74733475D01*
X135653475Y-74526632D01*
X135815990Y-74283411D01*
X135927932Y-74013158D01*
X135985000Y-73726260D01*
X135985000Y-73433740D01*
X135927932Y-73146842D01*
X135815990Y-72876589D01*
X135653475Y-72633368D01*
X135446632Y-72426525D01*
X135272240Y-72310000D01*
X135446632Y-72193475D01*
X135653475Y-71986632D01*
X135815990Y-71743411D01*
X135927932Y-71473158D01*
X135985000Y-71186260D01*
X135985000Y-70893740D01*
X135927932Y-70606842D01*
X135815990Y-70336589D01*
X135653475Y-70093368D01*
X135521620Y-69961513D01*
X135594180Y-69939502D01*
X135704494Y-69880537D01*
X135801185Y-69801185D01*
X135880537Y-69704494D01*
X135939502Y-69594180D01*
X135975812Y-69474482D01*
X135988072Y-69350000D01*
X135988072Y-67650000D01*
X135975812Y-67525518D01*
X135939502Y-67405820D01*
X135880537Y-67295506D01*
X135801185Y-67198815D01*
X135704494Y-67119463D01*
X135594180Y-67060498D01*
X135474482Y-67024188D01*
X135350000Y-67011928D01*
X133650000Y-67011928D01*
X133525518Y-67024188D01*
X133405820Y-67060498D01*
X133295506Y-67119463D01*
X133198815Y-67198815D01*
X133119463Y-67295506D01*
X133060498Y-67405820D01*
X133024188Y-67525518D01*
X133011928Y-67650000D01*
X133011928Y-68877914D01*
X131472175Y-70417668D01*
X131442227Y-70442246D01*
X131417649Y-70472194D01*
X131417645Y-70472198D01*
X131399140Y-70494747D01*
X131344129Y-70561777D01*
X131306892Y-70631444D01*
X131271236Y-70698151D01*
X131226349Y-70846124D01*
X131211193Y-71000010D01*
X131214991Y-71038573D01*
X131214990Y-73570855D01*
X129323625Y-75462220D01*
X129271641Y-75353080D01*
X129097588Y-75119731D01*
X128881355Y-74924822D01*
X128764466Y-74855195D01*
X128946632Y-74733475D01*
X129153475Y-74526632D01*
X129315990Y-74283411D01*
X129427932Y-74013158D01*
X129485000Y-73726260D01*
X129485000Y-73433740D01*
X129427932Y-73146842D01*
X129315990Y-72876589D01*
X129153475Y-72633368D01*
X129021620Y-72501513D01*
X129094180Y-72479502D01*
X129204494Y-72420537D01*
X129301185Y-72341185D01*
X129380537Y-72244494D01*
X129439502Y-72134180D01*
X129475812Y-72014482D01*
X129488072Y-71890000D01*
X129488072Y-70190000D01*
X129475812Y-70065518D01*
X129439502Y-69945820D01*
X129380537Y-69835506D01*
X129301185Y-69738815D01*
X129204494Y-69659463D01*
X129094180Y-69600498D01*
X128974482Y-69564188D01*
X128850000Y-69551928D01*
X127150000Y-69551928D01*
X127025518Y-69564188D01*
X126905820Y-69600498D01*
X126795506Y-69659463D01*
X126698815Y-69738815D01*
X126619463Y-69835506D01*
X126560498Y-69945820D01*
X126524188Y-70065518D01*
X126511928Y-70190000D01*
X126511928Y-71488625D01*
X123103998Y-74896556D01*
X123006250Y-74886928D01*
X122568750Y-74886928D01*
X122401592Y-74903392D01*
X122240858Y-74952150D01*
X122092725Y-75031329D01*
X122000000Y-75107426D01*
X121959218Y-75073957D01*
X122022238Y-75022238D01*
X122045259Y-74994187D01*
X125994197Y-71045250D01*
X126022237Y-71022238D01*
X126045250Y-70994197D01*
X126045253Y-70994194D01*
X126104637Y-70921835D01*
X126114087Y-70910320D01*
X126182337Y-70782633D01*
X126224365Y-70644085D01*
X126235000Y-70536105D01*
X126235000Y-70536096D01*
X126238555Y-70500001D01*
X126235000Y-70463906D01*
X126235000Y-65842287D01*
X126244180Y-65839502D01*
X126354494Y-65780537D01*
X126451185Y-65701185D01*
X126530537Y-65604494D01*
X126589502Y-65494180D01*
X126625812Y-65374482D01*
X126638072Y-65250000D01*
X130361928Y-65250000D01*
X130374188Y-65374482D01*
X130410498Y-65494180D01*
X130469463Y-65604494D01*
X130548815Y-65701185D01*
X130645506Y-65780537D01*
X130755820Y-65839502D01*
X130875518Y-65875812D01*
X131000000Y-65888072D01*
X131214250Y-65885000D01*
X131373000Y-65726250D01*
X131373000Y-65002000D01*
X131627000Y-65002000D01*
X131627000Y-65726250D01*
X131785750Y-65885000D01*
X132000000Y-65888072D01*
X132124482Y-65875812D01*
X132244180Y-65839502D01*
X132354494Y-65780537D01*
X132451185Y-65701185D01*
X132530537Y-65604494D01*
X132589502Y-65494180D01*
X132625812Y-65374482D01*
X132638072Y-65250000D01*
X132635000Y-65160750D01*
X132476250Y-65002000D01*
X131627000Y-65002000D01*
X131373000Y-65002000D01*
X130523750Y-65002000D01*
X130365000Y-65160750D01*
X130361928Y-65250000D01*
X126638072Y-65250000D01*
X126638072Y-64500000D01*
X130361928Y-64500000D01*
X130365000Y-64589250D01*
X130523750Y-64748000D01*
X131373000Y-64748000D01*
X131373000Y-64023750D01*
X131627000Y-64023750D01*
X131627000Y-64748000D01*
X132476250Y-64748000D01*
X132635000Y-64589250D01*
X132638072Y-64500000D01*
X132625812Y-64375518D01*
X132589502Y-64255820D01*
X132530537Y-64145506D01*
X132451185Y-64048815D01*
X132354494Y-63969463D01*
X132244180Y-63910498D01*
X132124482Y-63874188D01*
X132000000Y-63861928D01*
X131785750Y-63865000D01*
X131627000Y-64023750D01*
X131373000Y-64023750D01*
X131214250Y-63865000D01*
X131000000Y-63861928D01*
X130875518Y-63874188D01*
X130755820Y-63910498D01*
X130645506Y-63969463D01*
X130548815Y-64048815D01*
X130469463Y-64145506D01*
X130410498Y-64255820D01*
X130374188Y-64375518D01*
X130361928Y-64500000D01*
X126638072Y-64500000D01*
X126625812Y-64375518D01*
X126589502Y-64255820D01*
X126530537Y-64145506D01*
X126451185Y-64048815D01*
X126354494Y-63969463D01*
X126244180Y-63910498D01*
X126235000Y-63907713D01*
X126235000Y-62092287D01*
X126244180Y-62089502D01*
X126354494Y-62030537D01*
X126451185Y-61951185D01*
X126530537Y-61854494D01*
X126589502Y-61744180D01*
X126625812Y-61624482D01*
X126638072Y-61500000D01*
X130361928Y-61500000D01*
X130374188Y-61624482D01*
X130410498Y-61744180D01*
X130469463Y-61854494D01*
X130548815Y-61951185D01*
X130645506Y-62030537D01*
X130755820Y-62089502D01*
X130875518Y-62125812D01*
X131000000Y-62138072D01*
X131214250Y-62135000D01*
X131373000Y-61976250D01*
X131373000Y-61252000D01*
X131627000Y-61252000D01*
X131627000Y-61976250D01*
X131785750Y-62135000D01*
X132000000Y-62138072D01*
X132124482Y-62125812D01*
X132244180Y-62089502D01*
X132354494Y-62030537D01*
X132451185Y-61951185D01*
X132530537Y-61854494D01*
X132589502Y-61744180D01*
X132625812Y-61624482D01*
X132638072Y-61500000D01*
X132635000Y-61410750D01*
X132476250Y-61252000D01*
X131627000Y-61252000D01*
X131373000Y-61252000D01*
X130523750Y-61252000D01*
X130365000Y-61410750D01*
X130361928Y-61500000D01*
X126638072Y-61500000D01*
X126638072Y-60750000D01*
X130361928Y-60750000D01*
X130365000Y-60839250D01*
X130523750Y-60998000D01*
X131373000Y-60998000D01*
X131373000Y-60273750D01*
X131627000Y-60273750D01*
X131627000Y-60998000D01*
X132476250Y-60998000D01*
X132635000Y-60839250D01*
X132638072Y-60750000D01*
X132625812Y-60625518D01*
X132589502Y-60505820D01*
X132530537Y-60395506D01*
X132451185Y-60298815D01*
X132354494Y-60219463D01*
X132244180Y-60160498D01*
X132124482Y-60124188D01*
X132000000Y-60111928D01*
X131785750Y-60115000D01*
X131627000Y-60273750D01*
X131373000Y-60273750D01*
X131214250Y-60115000D01*
X131000000Y-60111928D01*
X130875518Y-60124188D01*
X130755820Y-60160498D01*
X130645506Y-60219463D01*
X130548815Y-60298815D01*
X130469463Y-60395506D01*
X130410498Y-60505820D01*
X130374188Y-60625518D01*
X130361928Y-60750000D01*
X126638072Y-60750000D01*
X126625812Y-60625518D01*
X126589502Y-60505820D01*
X126530537Y-60395506D01*
X126451185Y-60298815D01*
X126354494Y-60219463D01*
X126244180Y-60160498D01*
X126124482Y-60124188D01*
X126000000Y-60111928D01*
X125000000Y-60111928D01*
X124875518Y-60124188D01*
X124755820Y-60160498D01*
X124645506Y-60219463D01*
X124548815Y-60298815D01*
X124469463Y-60395506D01*
X124410498Y-60505820D01*
X124374188Y-60625518D01*
X124361928Y-60750000D01*
X124361928Y-61232135D01*
X124346608Y-61076592D01*
X124297850Y-60915858D01*
X124218671Y-60767725D01*
X124112115Y-60637885D01*
X123982275Y-60531329D01*
X123834142Y-60452150D01*
X123673408Y-60403392D01*
X123506250Y-60386928D01*
X123068813Y-60386928D01*
X123031585Y-60375635D01*
X122923605Y-60365000D01*
X122887500Y-60361444D01*
X122851395Y-60365000D01*
X120434702Y-60365000D01*
X120363405Y-60231614D01*
X120252962Y-60097038D01*
X120118386Y-59986595D01*
X119964850Y-59904528D01*
X119798254Y-59853992D01*
X119625000Y-59836928D01*
X118375000Y-59836928D01*
X118201746Y-59853992D01*
X118035150Y-59904528D01*
X117881614Y-59986595D01*
X117747038Y-60097038D01*
X117636595Y-60231614D01*
X117554528Y-60385150D01*
X117503992Y-60551746D01*
X117486928Y-60725000D01*
X117486928Y-61475000D01*
X117503992Y-61648254D01*
X117554528Y-61814850D01*
X117636595Y-61968386D01*
X117747038Y-62102962D01*
X117881614Y-62213405D01*
X118035150Y-62295472D01*
X118201746Y-62346008D01*
X118375000Y-62363072D01*
X119625000Y-62363072D01*
X119798254Y-62346008D01*
X119964850Y-62295472D01*
X120118386Y-62213405D01*
X120252962Y-62102962D01*
X120363405Y-61968386D01*
X120434702Y-61835000D01*
X122152071Y-61835000D01*
X122153392Y-61848408D01*
X122202150Y-62009142D01*
X122281329Y-62157275D01*
X122299100Y-62178930D01*
X122244463Y-62245506D01*
X122185498Y-62355820D01*
X122149188Y-62475518D01*
X122136928Y-62600000D01*
X122140000Y-62751750D01*
X122298750Y-62910500D01*
X123123000Y-62910500D01*
X123123000Y-62890500D01*
X123377000Y-62890500D01*
X123377000Y-62910500D01*
X124201250Y-62910500D01*
X124360000Y-62751750D01*
X124363072Y-62600000D01*
X124350812Y-62475518D01*
X124314502Y-62355820D01*
X124255537Y-62245506D01*
X124200900Y-62178930D01*
X124218671Y-62157275D01*
X124297850Y-62009142D01*
X124346608Y-61848408D01*
X124363072Y-61681250D01*
X124363072Y-61511616D01*
X124374188Y-61624482D01*
X124410498Y-61744180D01*
X124469463Y-61854494D01*
X124548815Y-61951185D01*
X124645506Y-62030537D01*
X124755820Y-62089502D01*
X124765000Y-62092287D01*
X124765001Y-63907713D01*
X124755820Y-63910498D01*
X124645506Y-63969463D01*
X124548815Y-64048815D01*
X124469463Y-64145506D01*
X124410498Y-64255820D01*
X124374188Y-64375518D01*
X124361928Y-64500000D01*
X124361928Y-65250000D01*
X124374188Y-65374482D01*
X124410498Y-65494180D01*
X124469463Y-65604494D01*
X124548815Y-65701185D01*
X124645506Y-65780537D01*
X124755820Y-65839502D01*
X124765001Y-65842287D01*
X124765000Y-70195553D01*
X121195554Y-73765000D01*
X119794994Y-73765000D01*
X119819553Y-73716608D01*
X119853314Y-73596166D01*
X119862928Y-73471452D01*
X119860000Y-73340750D01*
X119701252Y-73182002D01*
X119860000Y-73182002D01*
X119860000Y-73143072D01*
X120205000Y-73143072D01*
X120329482Y-73130812D01*
X120449180Y-73094502D01*
X120559494Y-73035537D01*
X120656185Y-72956185D01*
X120735537Y-72859494D01*
X120794502Y-72749180D01*
X120830812Y-72629482D01*
X120843072Y-72505000D01*
X120843072Y-72440796D01*
X120902240Y-72392238D01*
X120925261Y-72364188D01*
X123194198Y-70095251D01*
X123222238Y-70072239D01*
X123245251Y-70044198D01*
X123245254Y-70044195D01*
X123288515Y-69991481D01*
X123314088Y-69960321D01*
X123382338Y-69832634D01*
X123417608Y-69716365D01*
X123424366Y-69694087D01*
X123438557Y-69550002D01*
X123435001Y-69513897D01*
X123435001Y-65236105D01*
X123438557Y-65200000D01*
X123424366Y-65055915D01*
X123408011Y-65002000D01*
X123382338Y-64917368D01*
X123314088Y-64789681D01*
X123222239Y-64677763D01*
X123194194Y-64654747D01*
X122635791Y-64096345D01*
X122650518Y-64100812D01*
X122775000Y-64113072D01*
X122964250Y-64110000D01*
X123123000Y-63951250D01*
X123123000Y-63164500D01*
X123377000Y-63164500D01*
X123377000Y-63951250D01*
X123535750Y-64110000D01*
X123725000Y-64113072D01*
X123849482Y-64100812D01*
X123969180Y-64064502D01*
X124079494Y-64005537D01*
X124176185Y-63926185D01*
X124255537Y-63829494D01*
X124314502Y-63719180D01*
X124350812Y-63599482D01*
X124363072Y-63475000D01*
X124360000Y-63323250D01*
X124201250Y-63164500D01*
X123377000Y-63164500D01*
X123123000Y-63164500D01*
X122298750Y-63164500D01*
X122140000Y-63323250D01*
X122136928Y-63475000D01*
X122149188Y-63599482D01*
X122153655Y-63614209D01*
X121945258Y-63405812D01*
X121922238Y-63377762D01*
X121810320Y-63285913D01*
X121682633Y-63217663D01*
X121544085Y-63175635D01*
X121436105Y-63165000D01*
X121400000Y-63161444D01*
X121363895Y-63165000D01*
X120434702Y-63165000D01*
X120363405Y-63031614D01*
X120252962Y-62897038D01*
X120118386Y-62786595D01*
X119964850Y-62704528D01*
X119798254Y-62653992D01*
X119625000Y-62636928D01*
X118375000Y-62636928D01*
X118201746Y-62653992D01*
X118035150Y-62704528D01*
X117881614Y-62786595D01*
X117747038Y-62897038D01*
X117636595Y-63031614D01*
X117554528Y-63185150D01*
X117503992Y-63351746D01*
X117486928Y-63525000D01*
X117486928Y-64275000D01*
X117503992Y-64448254D01*
X117554528Y-64614850D01*
X117636595Y-64768386D01*
X117747038Y-64902962D01*
X117881614Y-65013405D01*
X118035150Y-65095472D01*
X118201746Y-65146008D01*
X118375000Y-65163072D01*
X119625000Y-65163072D01*
X119798254Y-65146008D01*
X119964850Y-65095472D01*
X120118386Y-65013405D01*
X120252962Y-64902962D01*
X120363405Y-64768386D01*
X120434702Y-64635000D01*
X121095554Y-64635000D01*
X121712470Y-65251916D01*
X121698102Y-65254774D01*
X121509744Y-65332795D01*
X121340226Y-65446063D01*
X121196063Y-65590226D01*
X121082795Y-65759744D01*
X121004774Y-65948102D01*
X120965000Y-66148061D01*
X120965000Y-66351939D01*
X121004774Y-66551898D01*
X121082795Y-66740256D01*
X121196063Y-66909774D01*
X121265001Y-66978712D01*
X121265001Y-67340552D01*
X119861950Y-68743604D01*
X119850812Y-68630518D01*
X119825000Y-68545427D01*
X119825000Y-67892996D01*
X119828555Y-67856901D01*
X119825000Y-67820806D01*
X119825000Y-67820797D01*
X119814365Y-67712817D01*
X119772337Y-67574269D01*
X119704087Y-67446582D01*
X119612238Y-67334664D01*
X119584193Y-67311648D01*
X112628356Y-60355812D01*
X112605335Y-60327761D01*
X112493417Y-60235912D01*
X112365730Y-60167662D01*
X112227182Y-60125634D01*
X112119202Y-60114999D01*
X112083097Y-60111443D01*
X112046992Y-60114999D01*
X101886105Y-60114999D01*
X101850000Y-60111443D01*
X101705915Y-60125634D01*
X101690913Y-60130185D01*
X101567368Y-60167662D01*
X101439681Y-60235912D01*
X101327763Y-60327761D01*
X101304747Y-60355806D01*
X101095897Y-60564656D01*
X100846260Y-60515000D01*
X100553740Y-60515000D01*
X100266842Y-60572068D01*
X99996589Y-60684010D01*
X99753368Y-60846525D01*
X99546525Y-61053368D01*
X99430000Y-61227760D01*
X99313475Y-61053368D01*
X99106632Y-60846525D01*
X98863411Y-60684010D01*
X98593158Y-60572068D01*
X98306260Y-60515000D01*
X98013740Y-60515000D01*
X97726842Y-60572068D01*
X97456589Y-60684010D01*
X97213368Y-60846525D01*
X97006525Y-61053368D01*
X96890000Y-61227760D01*
X96773475Y-61053368D01*
X96566632Y-60846525D01*
X96323411Y-60684010D01*
X96053158Y-60572068D01*
X95766260Y-60515000D01*
X95473740Y-60515000D01*
X95186842Y-60572068D01*
X94916589Y-60684010D01*
X94673368Y-60846525D01*
X94466525Y-61053368D01*
X94350000Y-61227760D01*
X94233475Y-61053368D01*
X94026632Y-60846525D01*
X93783411Y-60684010D01*
X93513158Y-60572068D01*
X93226260Y-60515000D01*
X92933740Y-60515000D01*
X92646842Y-60572068D01*
X92376589Y-60684010D01*
X92133368Y-60846525D01*
X91926525Y-61053368D01*
X91810000Y-61227760D01*
X91693475Y-61053368D01*
X91486632Y-60846525D01*
X91243411Y-60684010D01*
X90973158Y-60572068D01*
X90686260Y-60515000D01*
X90393740Y-60515000D01*
X90106842Y-60572068D01*
X89836589Y-60684010D01*
X89593368Y-60846525D01*
X89461513Y-60978380D01*
X89439502Y-60905820D01*
X89380537Y-60795506D01*
X89301185Y-60698815D01*
X89204494Y-60619463D01*
X89094180Y-60560498D01*
X88974482Y-60524188D01*
X88850000Y-60511928D01*
X88285750Y-60515000D01*
X88127000Y-60673750D01*
X87873000Y-60673750D01*
X87714250Y-60515000D01*
X87150000Y-60511928D01*
X87025518Y-60524188D01*
X86905820Y-60560498D01*
X86795506Y-60619463D01*
X86698815Y-60698815D01*
X86619463Y-60795506D01*
X86560498Y-60905820D01*
X86524188Y-61025518D01*
X86511928Y-61150000D01*
X79697482Y-61150000D01*
X79698147Y-61143225D01*
X79801763Y-60800033D01*
X79970062Y-60483511D01*
X80196637Y-60205701D01*
X80472856Y-59977194D01*
X80788197Y-59806690D01*
X81130656Y-59700681D01*
X81517712Y-59660000D01*
X136467721Y-59660000D01*
X136856775Y-59698147D01*
G37*
X136856775Y-59698147D02*
X137199967Y-59801763D01*
X137516489Y-59970062D01*
X137794299Y-60196637D01*
X138022806Y-60472856D01*
X138193310Y-60788197D01*
X138299319Y-61130656D01*
X138340001Y-61517722D01*
X138340000Y-81467721D01*
X138301853Y-81856776D01*
X138198238Y-82199964D01*
X138029939Y-82516489D01*
X137803365Y-82794296D01*
X137527146Y-83022805D01*
X137211803Y-83193310D01*
X136869344Y-83299319D01*
X136482288Y-83340000D01*
X81532279Y-83340000D01*
X81143224Y-83301853D01*
X80800036Y-83198238D01*
X80483511Y-83029939D01*
X80205704Y-82803365D01*
X79977195Y-82527146D01*
X79806690Y-82211803D01*
X79700681Y-81869344D01*
X79698648Y-81850000D01*
X110911928Y-81850000D01*
X110924188Y-81974482D01*
X110960498Y-82094180D01*
X111019463Y-82204494D01*
X111098815Y-82301185D01*
X111195506Y-82380537D01*
X111305820Y-82439502D01*
X111425518Y-82475812D01*
X111550000Y-82488072D01*
X111714250Y-82485000D01*
X111873000Y-82326250D01*
X111873000Y-81577000D01*
X112127000Y-81577000D01*
X112127000Y-82326250D01*
X112285750Y-82485000D01*
X112450000Y-82488072D01*
X112574482Y-82475812D01*
X112694180Y-82439502D01*
X112804494Y-82380537D01*
X112901185Y-82301185D01*
X112980537Y-82204494D01*
X113039502Y-82094180D01*
X113075812Y-81974482D01*
X113088072Y-81850000D01*
X116911928Y-81850000D01*
X116924188Y-81974482D01*
X116960498Y-82094180D01*
X117019463Y-82204494D01*
X117098815Y-82301185D01*
X117195506Y-82380537D01*
X117305820Y-82439502D01*
X117425518Y-82475812D01*
X117550000Y-82488072D01*
X117714250Y-82485000D01*
X117873000Y-82326250D01*
X117873000Y-81577000D01*
X118127000Y-81577000D01*
X118127000Y-82326250D01*
X118285750Y-82485000D01*
X118450000Y-82488072D01*
X118574482Y-82475812D01*
X118694180Y-82439502D01*
X118804494Y-82380537D01*
X118901185Y-82301185D01*
X118980537Y-82204494D01*
X119039502Y-82094180D01*
X119075812Y-81974482D01*
X119088072Y-81850000D01*
X119085000Y-81735750D01*
X118926250Y-81577000D01*
X118127000Y-81577000D01*
X117873000Y-81577000D01*
X117073750Y-81577000D01*
X116915000Y-81735750D01*
X116911928Y-81850000D01*
X113088072Y-81850000D01*
X113085000Y-81735750D01*
X112926250Y-81577000D01*
X112127000Y-81577000D01*
X111873000Y-81577000D01*
X111073750Y-81577000D01*
X110915000Y-81735750D01*
X110911928Y-81850000D01*
X79698648Y-81850000D01*
X79660000Y-81482288D01*
X79660000Y-71247000D01*
X86220000Y-71247000D01*
X86220000Y-72372000D01*
X86278594Y-72712919D01*
X86402573Y-73035856D01*
X86587171Y-73328401D01*
X86825295Y-73579311D01*
X87107793Y-73778944D01*
X87423810Y-73919629D01*
X87579957Y-73958933D01*
X87853000Y-73841206D01*
X87853000Y-71247000D01*
X88107000Y-71247000D01*
X88107000Y-73841206D01*
X88380043Y-73958933D01*
X88536190Y-73919629D01*
X88852207Y-73778944D01*
X89134705Y-73579311D01*
X89372829Y-73328401D01*
X89557427Y-73035856D01*
X89681406Y-72712919D01*
X89724429Y-72462596D01*
X92095000Y-72462596D01*
X92122275Y-72739523D01*
X92230061Y-73094847D01*
X92405097Y-73422317D01*
X92640655Y-73709345D01*
X92927683Y-73944903D01*
X93095001Y-74034336D01*
X93095001Y-75336521D01*
X93090719Y-75380000D01*
X93107805Y-75553490D01*
X93158412Y-75720313D01*
X93240590Y-75874059D01*
X93323468Y-75975046D01*
X93323471Y-75975049D01*
X93351184Y-76008817D01*
X93384951Y-76036529D01*
X95543465Y-78195044D01*
X95554774Y-78251898D01*
X95632795Y-78440256D01*
X95746063Y-78609774D01*
X95890226Y-78753937D01*
X96059744Y-78867205D01*
X96248102Y-78945226D01*
X96304957Y-78956535D01*
X97336928Y-79988507D01*
X97336928Y-80625000D01*
X97353992Y-80798254D01*
X97404528Y-80964850D01*
X97486595Y-81118386D01*
X97597038Y-81252962D01*
X97731614Y-81363405D01*
X97885150Y-81445472D01*
X98051746Y-81496008D01*
X98225000Y-81513072D01*
X98975000Y-81513072D01*
X99148254Y-81496008D01*
X99314850Y-81445472D01*
X99468386Y-81363405D01*
X99602962Y-81252962D01*
X99713405Y-81118386D01*
X99795472Y-80964850D01*
X99846008Y-80798254D01*
X99863072Y-80625000D01*
X99863072Y-79375000D01*
X99846008Y-79201746D01*
X99795472Y-79035150D01*
X99713405Y-78881614D01*
X99602962Y-78747038D01*
X99468386Y-78636595D01*
X99314850Y-78554528D01*
X99148254Y-78503992D01*
X98975000Y-78486928D01*
X98338507Y-78486928D01*
X97556535Y-77704957D01*
X97545226Y-77648102D01*
X97467205Y-77459744D01*
X97353937Y-77290226D01*
X97209774Y-77146063D01*
X97040256Y-77032795D01*
X96851898Y-76954774D01*
X96795044Y-76943465D01*
X96431579Y-76580000D01*
X97206928Y-76580000D01*
X97219188Y-76704482D01*
X97255498Y-76824180D01*
X97314463Y-76934494D01*
X97393815Y-77031185D01*
X97490506Y-77110537D01*
X97600820Y-77169502D01*
X97720518Y-77205812D01*
X97845000Y-77218072D01*
X98184250Y-77215000D01*
X98343000Y-77056250D01*
X98343000Y-76127000D01*
X98597000Y-76127000D01*
X98597000Y-77056250D01*
X98755750Y-77215000D01*
X99095000Y-77218072D01*
X99219482Y-77205812D01*
X99339180Y-77169502D01*
X99449494Y-77110537D01*
X99546185Y-77031185D01*
X99625537Y-76934494D01*
X99684502Y-76824180D01*
X99720812Y-76704482D01*
X99733072Y-76580000D01*
X99730000Y-76285750D01*
X99571250Y-76127000D01*
X98597000Y-76127000D01*
X98343000Y-76127000D01*
X97368750Y-76127000D01*
X97210000Y-76285750D01*
X97206928Y-76580000D01*
X96431579Y-76580000D01*
X95271579Y-75420000D01*
X97206928Y-75420000D01*
X97210000Y-75714250D01*
X97368750Y-75873000D01*
X98343000Y-75873000D01*
X98343000Y-74943750D01*
X98597000Y-74943750D01*
X98597000Y-75873000D01*
X99571250Y-75873000D01*
X99730000Y-75714250D01*
X99733072Y-75420000D01*
X99720812Y-75295518D01*
X99684502Y-75175820D01*
X99625537Y-75065506D01*
X99546185Y-74968815D01*
X99449494Y-74889463D01*
X99339180Y-74830498D01*
X99219482Y-74794188D01*
X99095000Y-74781928D01*
X98755750Y-74785000D01*
X98597000Y-74943750D01*
X98343000Y-74943750D01*
X98184250Y-74785000D01*
X97845000Y-74781928D01*
X97720518Y-74794188D01*
X97600820Y-74830498D01*
X97490506Y-74889463D01*
X97393815Y-74968815D01*
X97314463Y-75065506D01*
X97255498Y-75175820D01*
X97219188Y-75295518D01*
X97206928Y-75420000D01*
X95271579Y-75420000D01*
X94865000Y-75013422D01*
X94865000Y-74034336D01*
X95032317Y-73944903D01*
X95319345Y-73709345D01*
X95554903Y-73422317D01*
X95729939Y-73094848D01*
X95758710Y-73000000D01*
X98291928Y-73000000D01*
X98304188Y-73124482D01*
X98340498Y-73244180D01*
X98399463Y-73354494D01*
X98478815Y-73451185D01*
X98575506Y-73530537D01*
X98685820Y-73589502D01*
X98805518Y-73625812D01*
X98930000Y-73638072D01*
X98939250Y-73635000D01*
X99098000Y-73476250D01*
X99098000Y-72807000D01*
X98453750Y-72807000D01*
X98295000Y-72965750D01*
X98291928Y-73000000D01*
X95758710Y-73000000D01*
X95837725Y-72739524D01*
X95865000Y-72462597D01*
X95865000Y-71500000D01*
X98291928Y-71500000D01*
X98304188Y-71624482D01*
X98340498Y-71744180D01*
X98399463Y-71854494D01*
X98461429Y-71930000D01*
X98399463Y-72005506D01*
X98340498Y-72115820D01*
X98304188Y-72235518D01*
X98291928Y-72360000D01*
X98295000Y-72394250D01*
X98453750Y-72553000D01*
X99098000Y-72553000D01*
X99098000Y-71307000D01*
X98453750Y-71307000D01*
X98295000Y-71465750D01*
X98291928Y-71500000D01*
X95865000Y-71500000D01*
X95865000Y-70000000D01*
X98291928Y-70000000D01*
X98304188Y-70124482D01*
X98340498Y-70244180D01*
X98399463Y-70354494D01*
X98461429Y-70430000D01*
X98399463Y-70505506D01*
X98340498Y-70615820D01*
X98304188Y-70735518D01*
X98291928Y-70860000D01*
X98295000Y-70894250D01*
X98453750Y-71053000D01*
X99098000Y-71053000D01*
X99098000Y-69807000D01*
X98453750Y-69807000D01*
X98295000Y-69965750D01*
X98291928Y-70000000D01*
X95865000Y-70000000D01*
X95865000Y-69777403D01*
X95837725Y-69500476D01*
X95795113Y-69360000D01*
X98291928Y-69360000D01*
X98295000Y-69394250D01*
X98453750Y-69553000D01*
X99098000Y-69553000D01*
X99098000Y-68883750D01*
X98939250Y-68725000D01*
X98930000Y-68721928D01*
X98805518Y-68734188D01*
X98685820Y-68770498D01*
X98575506Y-68829463D01*
X98478815Y-68908815D01*
X98399463Y-69005506D01*
X98340498Y-69115820D01*
X98304188Y-69235518D01*
X98291928Y-69360000D01*
X95795113Y-69360000D01*
X95729939Y-69145152D01*
X95554903Y-68817683D01*
X95319345Y-68530655D01*
X95032317Y-68295097D01*
X94704848Y-68120061D01*
X94349524Y-68012275D01*
X93980000Y-67975880D01*
X93610477Y-68012275D01*
X93255153Y-68120061D01*
X92927684Y-68295097D01*
X92640656Y-68530655D01*
X92405098Y-68817683D01*
X92230062Y-69145152D01*
X92122276Y-69500476D01*
X92095001Y-69777403D01*
X92095000Y-72462596D01*
X89724429Y-72462596D01*
X89740000Y-72372000D01*
X89740000Y-71247000D01*
X88107000Y-71247000D01*
X87853000Y-71247000D01*
X86220000Y-71247000D01*
X79660000Y-71247000D01*
X79660000Y-69868000D01*
X86220000Y-69868000D01*
X86220000Y-70993000D01*
X87853000Y-70993000D01*
X87853000Y-68398794D01*
X88107000Y-68398794D01*
X88107000Y-70993000D01*
X89740000Y-70993000D01*
X89740000Y-69868000D01*
X89681406Y-69527081D01*
X89557427Y-69204144D01*
X89372829Y-68911599D01*
X89134705Y-68660689D01*
X88852207Y-68461056D01*
X88536190Y-68320371D01*
X88380043Y-68281067D01*
X88107000Y-68398794D01*
X87853000Y-68398794D01*
X87579957Y-68281067D01*
X87423810Y-68320371D01*
X87107793Y-68461056D01*
X86825295Y-68660689D01*
X86587171Y-68911599D01*
X86402573Y-69204144D01*
X86278594Y-69527081D01*
X86220000Y-69868000D01*
X79660000Y-69868000D01*
X79660000Y-62850000D01*
X86511928Y-62850000D01*
X86524188Y-62974482D01*
X86560498Y-63094180D01*
X86619463Y-63204494D01*
X86698815Y-63301185D01*
X86795506Y-63380537D01*
X86905820Y-63439502D01*
X87025518Y-63475812D01*
X87150000Y-63488072D01*
X87714250Y-63485000D01*
X87873000Y-63326250D01*
X87873000Y-62127000D01*
X86673750Y-62127000D01*
X86515000Y-62285750D01*
X86511928Y-62850000D01*
X79660000Y-62850000D01*
X79660000Y-61532279D01*
X79697482Y-61150000D01*
X86511928Y-61150000D01*
X86515000Y-61714250D01*
X86673750Y-61873000D01*
X87873000Y-61873000D01*
X87873000Y-60673750D01*
X88127000Y-60673750D01*
X88127000Y-61873000D01*
X88147000Y-61873000D01*
X88147000Y-62127000D01*
X88127000Y-62127000D01*
X88127000Y-63326250D01*
X88285750Y-63485000D01*
X88850000Y-63488072D01*
X88974482Y-63475812D01*
X89094180Y-63439502D01*
X89204494Y-63380537D01*
X89301185Y-63301185D01*
X89380537Y-63204494D01*
X89439502Y-63094180D01*
X89461513Y-63021620D01*
X89593368Y-63153475D01*
X89836589Y-63315990D01*
X90106842Y-63427932D01*
X90393740Y-63485000D01*
X90686260Y-63485000D01*
X90973158Y-63427932D01*
X91243411Y-63315990D01*
X91486632Y-63153475D01*
X91693475Y-62946632D01*
X91810000Y-62772240D01*
X91926525Y-62946632D01*
X92133368Y-63153475D01*
X92376589Y-63315990D01*
X92646842Y-63427932D01*
X92933740Y-63485000D01*
X93226260Y-63485000D01*
X93513158Y-63427932D01*
X93783411Y-63315990D01*
X94026632Y-63153475D01*
X94233475Y-62946632D01*
X94350000Y-62772240D01*
X94466525Y-62946632D01*
X94673368Y-63153475D01*
X94916589Y-63315990D01*
X95186842Y-63427932D01*
X95473740Y-63485000D01*
X95766260Y-63485000D01*
X96015897Y-63435344D01*
X96624757Y-64044204D01*
X96647773Y-64072249D01*
X96725995Y-64136444D01*
X96759691Y-64164098D01*
X96887377Y-64232348D01*
X97025926Y-64274376D01*
X97170011Y-64288567D01*
X97206116Y-64285011D01*
X101170173Y-64285011D01*
X101145295Y-64322244D01*
X101067274Y-64510602D01*
X101027500Y-64710561D01*
X101027500Y-64914439D01*
X101067274Y-65114398D01*
X101145295Y-65302756D01*
X101213657Y-65405067D01*
X101195208Y-65420208D01*
X101085542Y-65553836D01*
X101004053Y-65706291D01*
X100953872Y-65871715D01*
X100936928Y-66043750D01*
X100936928Y-66515415D01*
X99667185Y-67785158D01*
X99637237Y-67809736D01*
X99612659Y-67839684D01*
X99612655Y-67839688D01*
X99598529Y-67856901D01*
X99539139Y-67929267D01*
X99513218Y-67977762D01*
X99466246Y-68065641D01*
X99421359Y-68213614D01*
X99406203Y-68367500D01*
X99410001Y-68406062D01*
X99410001Y-68825749D01*
X99352000Y-68883750D01*
X99352000Y-69150237D01*
X99321726Y-69206875D01*
X99277023Y-69354243D01*
X99261928Y-69507500D01*
X99261928Y-69852500D01*
X99277023Y-70005757D01*
X99321726Y-70153125D01*
X99352000Y-70209763D01*
X99352000Y-70650237D01*
X99321726Y-70706875D01*
X99277023Y-70854243D01*
X99261928Y-71007500D01*
X99261928Y-71352500D01*
X99277023Y-71505757D01*
X99321726Y-71653125D01*
X99352000Y-71709763D01*
X99352000Y-72150237D01*
X99321726Y-72206875D01*
X99277023Y-72354243D01*
X99261928Y-72507500D01*
X99261928Y-72852500D01*
X99277023Y-73005757D01*
X99321726Y-73153125D01*
X99352000Y-73209763D01*
X99352000Y-73476250D01*
X99510750Y-73635000D01*
X99520000Y-73638072D01*
X99644482Y-73625812D01*
X99764180Y-73589502D01*
X99771316Y-73585688D01*
X99894243Y-73622977D01*
X100047500Y-73638072D01*
X100342500Y-73638072D01*
X100495757Y-73622977D01*
X100643125Y-73578274D01*
X100778940Y-73505679D01*
X100897983Y-73407983D01*
X100995679Y-73288940D01*
X101068274Y-73153125D01*
X101112977Y-73005757D01*
X101128072Y-72852500D01*
X101128072Y-72507500D01*
X101112977Y-72354243D01*
X101068274Y-72206875D01*
X100995679Y-72071060D01*
X100980000Y-72051955D01*
X100980000Y-71808045D01*
X100995679Y-71788940D01*
X101068274Y-71653125D01*
X101112977Y-71505757D01*
X101128072Y-71352500D01*
X101128072Y-71007500D01*
X101112977Y-70854243D01*
X101068274Y-70706875D01*
X100995679Y-70571060D01*
X100980000Y-70551955D01*
X100980000Y-70308045D01*
X100995679Y-70288940D01*
X101068274Y-70153125D01*
X101112977Y-70005757D01*
X101128072Y-69852500D01*
X101128072Y-69507500D01*
X101112977Y-69354243D01*
X101068274Y-69206875D01*
X100995679Y-69071060D01*
X100980000Y-69051955D01*
X100980000Y-68692657D01*
X101038745Y-68633912D01*
X101082795Y-68740256D01*
X101196063Y-68909774D01*
X101340226Y-69053937D01*
X101509744Y-69167205D01*
X101698102Y-69245226D01*
X101898061Y-69285000D01*
X101995553Y-69285000D01*
X102015001Y-69304447D01*
X102015000Y-69623391D01*
X101999188Y-69675518D01*
X101986928Y-69800000D01*
X101986928Y-70300000D01*
X101999188Y-70424482D01*
X102035498Y-70544180D01*
X102062774Y-70595208D01*
X102065000Y-70714250D01*
X102097243Y-70746493D01*
X102071836Y-70872998D01*
X102065000Y-70872998D01*
X102065000Y-70998534D01*
X102064829Y-71090355D01*
X102065000Y-71091223D01*
X102065000Y-71127002D01*
X102072048Y-71127002D01*
X102097013Y-71253737D01*
X102065000Y-71285750D01*
X102062780Y-71404461D01*
X102028501Y-71473450D01*
X101995765Y-71594174D01*
X101990000Y-71668250D01*
X102148750Y-71827000D01*
X102187933Y-71827000D01*
X102248815Y-71901185D01*
X102345506Y-71980537D01*
X102455820Y-72039502D01*
X102486928Y-72048939D01*
X102486928Y-72073000D01*
X102148750Y-72073000D01*
X101990000Y-72231750D01*
X101995765Y-72305826D01*
X102028501Y-72426550D01*
X102084160Y-72538568D01*
X102160604Y-72637575D01*
X102254894Y-72719767D01*
X102363407Y-72781984D01*
X102481973Y-72821835D01*
X102591250Y-72835000D01*
X102729426Y-72696824D01*
X102770506Y-72730537D01*
X102843078Y-72769328D01*
X102908750Y-72835000D01*
X102990000Y-72825211D01*
X102990001Y-74197668D01*
X102986324Y-74235000D01*
X102990001Y-74272333D01*
X103000998Y-74383986D01*
X103008697Y-74409365D01*
X103044454Y-74527246D01*
X103115026Y-74659276D01*
X103185900Y-74745635D01*
X103210000Y-74775001D01*
X103238997Y-74798799D01*
X103440198Y-75000000D01*
X103200199Y-75240000D01*
X102763971Y-75240000D01*
X102744502Y-75175820D01*
X102685537Y-75065506D01*
X102606185Y-74968815D01*
X102509494Y-74889463D01*
X102399180Y-74830498D01*
X102279482Y-74794188D01*
X102155000Y-74781928D01*
X100905000Y-74781928D01*
X100780518Y-74794188D01*
X100660820Y-74830498D01*
X100550506Y-74889463D01*
X100453815Y-74968815D01*
X100374463Y-75065506D01*
X100315498Y-75175820D01*
X100279188Y-75295518D01*
X100266928Y-75420000D01*
X100266928Y-76580000D01*
X100279188Y-76704482D01*
X100315498Y-76824180D01*
X100374463Y-76934494D01*
X100453815Y-77031185D01*
X100550506Y-77110537D01*
X100640001Y-77158374D01*
X100640000Y-78578661D01*
X100531614Y-78636595D01*
X100397038Y-78747038D01*
X100286595Y-78881614D01*
X100204528Y-79035150D01*
X100153992Y-79201746D01*
X100136928Y-79375000D01*
X100136928Y-80625000D01*
X100153992Y-80798254D01*
X100204528Y-80964850D01*
X100286595Y-81118386D01*
X100397038Y-81252962D01*
X100531614Y-81363405D01*
X100685150Y-81445472D01*
X100851746Y-81496008D01*
X101025000Y-81513072D01*
X101775000Y-81513072D01*
X101948254Y-81496008D01*
X102114850Y-81445472D01*
X102268386Y-81363405D01*
X102402962Y-81252962D01*
X102513405Y-81118386D01*
X102595472Y-80964850D01*
X102646008Y-80798254D01*
X102663072Y-80625000D01*
X102663072Y-79375000D01*
X102646008Y-79201746D01*
X102595472Y-79035150D01*
X102513405Y-78881614D01*
X102402962Y-78747038D01*
X102268386Y-78636595D01*
X102160000Y-78578661D01*
X102160000Y-77217580D01*
X102279482Y-77205812D01*
X102399180Y-77169502D01*
X102509494Y-77110537D01*
X102606185Y-77031185D01*
X102685537Y-76934494D01*
X102744502Y-76824180D01*
X102763971Y-76760000D01*
X103477678Y-76760000D01*
X103515000Y-76763676D01*
X103552322Y-76760000D01*
X103552333Y-76760000D01*
X103663986Y-76749003D01*
X103807247Y-76705546D01*
X103939276Y-76634974D01*
X104055001Y-76540001D01*
X104078804Y-76510998D01*
X104631730Y-75958072D01*
X104662500Y-75958072D01*
X104815757Y-75942977D01*
X104938684Y-75905688D01*
X104945820Y-75909502D01*
X105065518Y-75945812D01*
X105190000Y-75958072D01*
X105199250Y-75955000D01*
X105358000Y-75796250D01*
X105358000Y-75529763D01*
X105388274Y-75473125D01*
X105432977Y-75325757D01*
X105448072Y-75172500D01*
X105448072Y-75127000D01*
X105612000Y-75127000D01*
X105612000Y-75796250D01*
X105770750Y-75955000D01*
X105780000Y-75958072D01*
X105904482Y-75945812D01*
X106024180Y-75909502D01*
X106134494Y-75850537D01*
X106231185Y-75771185D01*
X106310537Y-75674494D01*
X106369502Y-75564180D01*
X106405812Y-75444482D01*
X106418072Y-75320000D01*
X106415000Y-75285750D01*
X106256250Y-75127000D01*
X105612000Y-75127000D01*
X105448072Y-75127000D01*
X105448072Y-74853000D01*
X105612000Y-74853000D01*
X105612000Y-74873000D01*
X106256250Y-74873000D01*
X106415000Y-74714250D01*
X106418072Y-74680000D01*
X106405812Y-74555518D01*
X106377965Y-74463718D01*
X106490256Y-74417205D01*
X106659774Y-74303937D01*
X106803937Y-74159774D01*
X106917205Y-73990256D01*
X106995226Y-73801898D01*
X107035000Y-73601939D01*
X107035000Y-73398061D01*
X106995941Y-73201696D01*
X107066562Y-73237542D01*
X107187002Y-73271308D01*
X107311715Y-73280929D01*
X107444250Y-73278000D01*
X107602998Y-73119252D01*
X107602998Y-73278000D01*
X107709032Y-73278000D01*
X107712014Y-73308275D01*
X107688063Y-73332226D01*
X107574795Y-73501744D01*
X107496774Y-73690102D01*
X107457000Y-73890061D01*
X107457000Y-74093939D01*
X107496774Y-74293898D01*
X107574795Y-74482256D01*
X107688063Y-74651774D01*
X107832226Y-74795937D01*
X108001744Y-74909205D01*
X108190102Y-74987226D01*
X108390061Y-75027000D01*
X108487554Y-75027000D01*
X109045124Y-75584571D01*
X109027023Y-75644243D01*
X109011928Y-75797500D01*
X109011928Y-76092500D01*
X109027023Y-76245757D01*
X109071726Y-76393125D01*
X109091436Y-76430000D01*
X109071726Y-76466875D01*
X109027023Y-76614243D01*
X109011928Y-76767500D01*
X109011928Y-77062500D01*
X109027023Y-77215757D01*
X109071726Y-77363125D01*
X109144321Y-77498940D01*
X109242017Y-77617983D01*
X109361060Y-77715679D01*
X109496875Y-77788274D01*
X109644243Y-77832977D01*
X109797500Y-77848072D01*
X110142500Y-77848072D01*
X110295757Y-77832977D01*
X110443125Y-77788274D01*
X110578940Y-77715679D01*
X110658970Y-77650000D01*
X111133731Y-77650000D01*
X111261114Y-77688641D01*
X111415000Y-77703798D01*
X111568887Y-77688641D01*
X111696270Y-77650000D01*
X112240845Y-77650000D01*
X112272017Y-77687983D01*
X112391060Y-77785679D01*
X112526875Y-77858274D01*
X112674243Y-77902977D01*
X112827500Y-77918072D01*
X113172500Y-77918072D01*
X113325757Y-77902977D01*
X113473125Y-77858274D01*
X113608940Y-77785679D01*
X113727983Y-77687983D01*
X113825679Y-77568940D01*
X113898274Y-77433125D01*
X113942977Y-77285757D01*
X113958072Y-77132500D01*
X113958072Y-76837500D01*
X113946395Y-76718947D01*
X114017633Y-76697337D01*
X114145320Y-76629087D01*
X114257238Y-76537238D01*
X114280258Y-76509188D01*
X114754446Y-76035000D01*
X114851939Y-76035000D01*
X115051898Y-75995226D01*
X115240256Y-75917205D01*
X115409774Y-75803937D01*
X115553937Y-75659774D01*
X115667205Y-75490256D01*
X115745226Y-75301898D01*
X115785000Y-75101939D01*
X115785000Y-74898061D01*
X115745226Y-74698102D01*
X115667205Y-74509744D01*
X115553937Y-74340226D01*
X115485000Y-74271289D01*
X115485000Y-73143072D01*
X115816928Y-73143072D01*
X115816928Y-73485000D01*
X115817656Y-73492391D01*
X115791935Y-73577181D01*
X115775635Y-73630915D01*
X115761444Y-73775000D01*
X115765000Y-73811105D01*
X115765000Y-74463895D01*
X115761444Y-74500000D01*
X115775635Y-74644085D01*
X115817663Y-74782633D01*
X115885913Y-74910320D01*
X115977762Y-75022238D01*
X116089680Y-75114087D01*
X116217367Y-75182337D01*
X116286996Y-75203459D01*
X116282796Y-75209745D01*
X116204775Y-75398103D01*
X116165001Y-75598062D01*
X116165001Y-75695554D01*
X113045556Y-78815000D01*
X112990957Y-78815000D01*
X112980537Y-78795506D01*
X112901185Y-78698815D01*
X112804494Y-78619463D01*
X112694180Y-78560498D01*
X112574482Y-78524188D01*
X112450000Y-78511928D01*
X111550000Y-78511928D01*
X111425518Y-78524188D01*
X111305820Y-78560498D01*
X111195506Y-78619463D01*
X111098815Y-78698815D01*
X111019463Y-78795506D01*
X110960498Y-78905820D01*
X110924188Y-79025518D01*
X110911928Y-79150000D01*
X110911928Y-79950000D01*
X110924188Y-80074482D01*
X110960498Y-80194180D01*
X111019463Y-80304494D01*
X111098815Y-80401185D01*
X111195506Y-80480537D01*
X111231918Y-80500000D01*
X111195506Y-80519463D01*
X111098815Y-80598815D01*
X111019463Y-80695506D01*
X110960498Y-80805820D01*
X110924188Y-80925518D01*
X110911928Y-81050000D01*
X110915000Y-81164250D01*
X111073750Y-81323000D01*
X111873000Y-81323000D01*
X111873000Y-81303000D01*
X112127000Y-81303000D01*
X112127000Y-81323000D01*
X112926250Y-81323000D01*
X113010857Y-81238393D01*
X113019463Y-81254494D01*
X113098815Y-81351185D01*
X113195506Y-81430537D01*
X113305820Y-81489502D01*
X113425518Y-81525812D01*
X113550000Y-81538072D01*
X114450000Y-81538072D01*
X114574482Y-81525812D01*
X114694180Y-81489502D01*
X114804494Y-81430537D01*
X114901185Y-81351185D01*
X114976018Y-81260000D01*
X115359770Y-81260000D01*
X115391060Y-81285679D01*
X115526875Y-81358274D01*
X115674243Y-81402977D01*
X115827500Y-81418072D01*
X116172500Y-81418072D01*
X116325757Y-81402977D01*
X116473125Y-81358274D01*
X116608940Y-81285679D01*
X116628045Y-81270000D01*
X117020750Y-81270000D01*
X117073750Y-81323000D01*
X117873000Y-81323000D01*
X117873000Y-81303000D01*
X118127000Y-81303000D01*
X118127000Y-81323000D01*
X118926250Y-81323000D01*
X119010857Y-81238393D01*
X119019463Y-81254494D01*
X119098815Y-81351185D01*
X119195506Y-81430537D01*
X119305820Y-81489502D01*
X119425518Y-81525812D01*
X119550000Y-81538072D01*
X120450000Y-81538072D01*
X120574482Y-81525812D01*
X120694180Y-81489502D01*
X120804494Y-81430537D01*
X120901185Y-81351185D01*
X120955501Y-81285000D01*
X121390233Y-81285000D01*
X121391060Y-81285679D01*
X121526875Y-81358274D01*
X121674243Y-81402977D01*
X121827500Y-81418072D01*
X122172500Y-81418072D01*
X122325757Y-81402977D01*
X122473125Y-81358274D01*
X122608940Y-81285679D01*
X122628045Y-81270000D01*
X127946447Y-81270000D01*
X127985000Y-81273797D01*
X128023553Y-81270000D01*
X128023561Y-81270000D01*
X128138887Y-81258641D01*
X128286860Y-81213754D01*
X128423233Y-81140862D01*
X128542764Y-81042764D01*
X128567347Y-81012810D01*
X133027817Y-76552341D01*
X133057764Y-76527764D01*
X133069586Y-76513359D01*
X133103175Y-76624099D01*
X133228359Y-76886920D01*
X133402412Y-77120269D01*
X133618645Y-77315178D01*
X133868748Y-77464157D01*
X134143109Y-77561481D01*
X134373000Y-77440814D01*
X134373000Y-76247000D01*
X134627000Y-76247000D01*
X134627000Y-77440814D01*
X134856891Y-77561481D01*
X135131252Y-77464157D01*
X135381355Y-77315178D01*
X135597588Y-77120269D01*
X135771641Y-76886920D01*
X135896825Y-76624099D01*
X135941476Y-76476890D01*
X135820155Y-76247000D01*
X134627000Y-76247000D01*
X134373000Y-76247000D01*
X134353000Y-76247000D01*
X134353000Y-75993000D01*
X134373000Y-75993000D01*
X134373000Y-75973000D01*
X134627000Y-75973000D01*
X134627000Y-75993000D01*
X135820155Y-75993000D01*
X135941476Y-75763110D01*
X135896825Y-75615901D01*
X135771641Y-75353080D01*
X135597588Y-75119731D01*
X135381355Y-74924822D01*
X135264466Y-74855195D01*
X135446632Y-74733475D01*
X135653475Y-74526632D01*
X135815990Y-74283411D01*
X135927932Y-74013158D01*
X135985000Y-73726260D01*
X135985000Y-73433740D01*
X135927932Y-73146842D01*
X135815990Y-72876589D01*
X135653475Y-72633368D01*
X135446632Y-72426525D01*
X135272240Y-72310000D01*
X135446632Y-72193475D01*
X135653475Y-71986632D01*
X135815990Y-71743411D01*
X135927932Y-71473158D01*
X135985000Y-71186260D01*
X135985000Y-70893740D01*
X135927932Y-70606842D01*
X135815990Y-70336589D01*
X135653475Y-70093368D01*
X135521620Y-69961513D01*
X135594180Y-69939502D01*
X135704494Y-69880537D01*
X135801185Y-69801185D01*
X135880537Y-69704494D01*
X135939502Y-69594180D01*
X135975812Y-69474482D01*
X135988072Y-69350000D01*
X135988072Y-67650000D01*
X135975812Y-67525518D01*
X135939502Y-67405820D01*
X135880537Y-67295506D01*
X135801185Y-67198815D01*
X135704494Y-67119463D01*
X135594180Y-67060498D01*
X135474482Y-67024188D01*
X135350000Y-67011928D01*
X133650000Y-67011928D01*
X133525518Y-67024188D01*
X133405820Y-67060498D01*
X133295506Y-67119463D01*
X133198815Y-67198815D01*
X133119463Y-67295506D01*
X133060498Y-67405820D01*
X133024188Y-67525518D01*
X133011928Y-67650000D01*
X133011928Y-68877914D01*
X131472175Y-70417668D01*
X131442227Y-70442246D01*
X131417649Y-70472194D01*
X131417645Y-70472198D01*
X131399140Y-70494747D01*
X131344129Y-70561777D01*
X131306892Y-70631444D01*
X131271236Y-70698151D01*
X131226349Y-70846124D01*
X131211193Y-71000010D01*
X131214991Y-71038573D01*
X131214990Y-73570855D01*
X129323625Y-75462220D01*
X129271641Y-75353080D01*
X129097588Y-75119731D01*
X128881355Y-74924822D01*
X128764466Y-74855195D01*
X128946632Y-74733475D01*
X129153475Y-74526632D01*
X129315990Y-74283411D01*
X129427932Y-74013158D01*
X129485000Y-73726260D01*
X129485000Y-73433740D01*
X129427932Y-73146842D01*
X129315990Y-72876589D01*
X129153475Y-72633368D01*
X129021620Y-72501513D01*
X129094180Y-72479502D01*
X129204494Y-72420537D01*
X129301185Y-72341185D01*
X129380537Y-72244494D01*
X129439502Y-72134180D01*
X129475812Y-72014482D01*
X129488072Y-71890000D01*
X129488072Y-70190000D01*
X129475812Y-70065518D01*
X129439502Y-69945820D01*
X129380537Y-69835506D01*
X129301185Y-69738815D01*
X129204494Y-69659463D01*
X129094180Y-69600498D01*
X128974482Y-69564188D01*
X128850000Y-69551928D01*
X127150000Y-69551928D01*
X127025518Y-69564188D01*
X126905820Y-69600498D01*
X126795506Y-69659463D01*
X126698815Y-69738815D01*
X126619463Y-69835506D01*
X126560498Y-69945820D01*
X126524188Y-70065518D01*
X126511928Y-70190000D01*
X126511928Y-71488625D01*
X123103998Y-74896556D01*
X123006250Y-74886928D01*
X122568750Y-74886928D01*
X122401592Y-74903392D01*
X122240858Y-74952150D01*
X122092725Y-75031329D01*
X122000000Y-75107426D01*
X121959218Y-75073957D01*
X122022238Y-75022238D01*
X122045259Y-74994187D01*
X125994197Y-71045250D01*
X126022237Y-71022238D01*
X126045250Y-70994197D01*
X126045253Y-70994194D01*
X126104637Y-70921835D01*
X126114087Y-70910320D01*
X126182337Y-70782633D01*
X126224365Y-70644085D01*
X126235000Y-70536105D01*
X126235000Y-70536096D01*
X126238555Y-70500001D01*
X126235000Y-70463906D01*
X126235000Y-65842287D01*
X126244180Y-65839502D01*
X126354494Y-65780537D01*
X126451185Y-65701185D01*
X126530537Y-65604494D01*
X126589502Y-65494180D01*
X126625812Y-65374482D01*
X126638072Y-65250000D01*
X130361928Y-65250000D01*
X130374188Y-65374482D01*
X130410498Y-65494180D01*
X130469463Y-65604494D01*
X130548815Y-65701185D01*
X130645506Y-65780537D01*
X130755820Y-65839502D01*
X130875518Y-65875812D01*
X131000000Y-65888072D01*
X131214250Y-65885000D01*
X131373000Y-65726250D01*
X131373000Y-65002000D01*
X131627000Y-65002000D01*
X131627000Y-65726250D01*
X131785750Y-65885000D01*
X132000000Y-65888072D01*
X132124482Y-65875812D01*
X132244180Y-65839502D01*
X132354494Y-65780537D01*
X132451185Y-65701185D01*
X132530537Y-65604494D01*
X132589502Y-65494180D01*
X132625812Y-65374482D01*
X132638072Y-65250000D01*
X132635000Y-65160750D01*
X132476250Y-65002000D01*
X131627000Y-65002000D01*
X131373000Y-65002000D01*
X130523750Y-65002000D01*
X130365000Y-65160750D01*
X130361928Y-65250000D01*
X126638072Y-65250000D01*
X126638072Y-64500000D01*
X130361928Y-64500000D01*
X130365000Y-64589250D01*
X130523750Y-64748000D01*
X131373000Y-64748000D01*
X131373000Y-64023750D01*
X131627000Y-64023750D01*
X131627000Y-64748000D01*
X132476250Y-64748000D01*
X132635000Y-64589250D01*
X132638072Y-64500000D01*
X132625812Y-64375518D01*
X132589502Y-64255820D01*
X132530537Y-64145506D01*
X132451185Y-64048815D01*
X132354494Y-63969463D01*
X132244180Y-63910498D01*
X132124482Y-63874188D01*
X132000000Y-63861928D01*
X131785750Y-63865000D01*
X131627000Y-64023750D01*
X131373000Y-64023750D01*
X131214250Y-63865000D01*
X131000000Y-63861928D01*
X130875518Y-63874188D01*
X130755820Y-63910498D01*
X130645506Y-63969463D01*
X130548815Y-64048815D01*
X130469463Y-64145506D01*
X130410498Y-64255820D01*
X130374188Y-64375518D01*
X130361928Y-64500000D01*
X126638072Y-64500000D01*
X126625812Y-64375518D01*
X126589502Y-64255820D01*
X126530537Y-64145506D01*
X126451185Y-64048815D01*
X126354494Y-63969463D01*
X126244180Y-63910498D01*
X126235000Y-63907713D01*
X126235000Y-62092287D01*
X126244180Y-62089502D01*
X126354494Y-62030537D01*
X126451185Y-61951185D01*
X126530537Y-61854494D01*
X126589502Y-61744180D01*
X126625812Y-61624482D01*
X126638072Y-61500000D01*
X130361928Y-61500000D01*
X130374188Y-61624482D01*
X130410498Y-61744180D01*
X130469463Y-61854494D01*
X130548815Y-61951185D01*
X130645506Y-62030537D01*
X130755820Y-62089502D01*
X130875518Y-62125812D01*
X131000000Y-62138072D01*
X131214250Y-62135000D01*
X131373000Y-61976250D01*
X131373000Y-61252000D01*
X131627000Y-61252000D01*
X131627000Y-61976250D01*
X131785750Y-62135000D01*
X132000000Y-62138072D01*
X132124482Y-62125812D01*
X132244180Y-62089502D01*
X132354494Y-62030537D01*
X132451185Y-61951185D01*
X132530537Y-61854494D01*
X132589502Y-61744180D01*
X132625812Y-61624482D01*
X132638072Y-61500000D01*
X132635000Y-61410750D01*
X132476250Y-61252000D01*
X131627000Y-61252000D01*
X131373000Y-61252000D01*
X130523750Y-61252000D01*
X130365000Y-61410750D01*
X130361928Y-61500000D01*
X126638072Y-61500000D01*
X126638072Y-60750000D01*
X130361928Y-60750000D01*
X130365000Y-60839250D01*
X130523750Y-60998000D01*
X131373000Y-60998000D01*
X131373000Y-60273750D01*
X131627000Y-60273750D01*
X131627000Y-60998000D01*
X132476250Y-60998000D01*
X132635000Y-60839250D01*
X132638072Y-60750000D01*
X132625812Y-60625518D01*
X132589502Y-60505820D01*
X132530537Y-60395506D01*
X132451185Y-60298815D01*
X132354494Y-60219463D01*
X132244180Y-60160498D01*
X132124482Y-60124188D01*
X132000000Y-60111928D01*
X131785750Y-60115000D01*
X131627000Y-60273750D01*
X131373000Y-60273750D01*
X131214250Y-60115000D01*
X131000000Y-60111928D01*
X130875518Y-60124188D01*
X130755820Y-60160498D01*
X130645506Y-60219463D01*
X130548815Y-60298815D01*
X130469463Y-60395506D01*
X130410498Y-60505820D01*
X130374188Y-60625518D01*
X130361928Y-60750000D01*
X126638072Y-60750000D01*
X126625812Y-60625518D01*
X126589502Y-60505820D01*
X126530537Y-60395506D01*
X126451185Y-60298815D01*
X126354494Y-60219463D01*
X126244180Y-60160498D01*
X126124482Y-60124188D01*
X126000000Y-60111928D01*
X125000000Y-60111928D01*
X124875518Y-60124188D01*
X124755820Y-60160498D01*
X124645506Y-60219463D01*
X124548815Y-60298815D01*
X124469463Y-60395506D01*
X124410498Y-60505820D01*
X124374188Y-60625518D01*
X124361928Y-60750000D01*
X124361928Y-61232135D01*
X124346608Y-61076592D01*
X124297850Y-60915858D01*
X124218671Y-60767725D01*
X124112115Y-60637885D01*
X123982275Y-60531329D01*
X123834142Y-60452150D01*
X123673408Y-60403392D01*
X123506250Y-60386928D01*
X123068813Y-60386928D01*
X123031585Y-60375635D01*
X122923605Y-60365000D01*
X122887500Y-60361444D01*
X122851395Y-60365000D01*
X120434702Y-60365000D01*
X120363405Y-60231614D01*
X120252962Y-60097038D01*
X120118386Y-59986595D01*
X119964850Y-59904528D01*
X119798254Y-59853992D01*
X119625000Y-59836928D01*
X118375000Y-59836928D01*
X118201746Y-59853992D01*
X118035150Y-59904528D01*
X117881614Y-59986595D01*
X117747038Y-60097038D01*
X117636595Y-60231614D01*
X117554528Y-60385150D01*
X117503992Y-60551746D01*
X117486928Y-60725000D01*
X117486928Y-61475000D01*
X117503992Y-61648254D01*
X117554528Y-61814850D01*
X117636595Y-61968386D01*
X117747038Y-62102962D01*
X117881614Y-62213405D01*
X118035150Y-62295472D01*
X118201746Y-62346008D01*
X118375000Y-62363072D01*
X119625000Y-62363072D01*
X119798254Y-62346008D01*
X119964850Y-62295472D01*
X120118386Y-62213405D01*
X120252962Y-62102962D01*
X120363405Y-61968386D01*
X120434702Y-61835000D01*
X122152071Y-61835000D01*
X122153392Y-61848408D01*
X122202150Y-62009142D01*
X122281329Y-62157275D01*
X122299100Y-62178930D01*
X122244463Y-62245506D01*
X122185498Y-62355820D01*
X122149188Y-62475518D01*
X122136928Y-62600000D01*
X122140000Y-62751750D01*
X122298750Y-62910500D01*
X123123000Y-62910500D01*
X123123000Y-62890500D01*
X123377000Y-62890500D01*
X123377000Y-62910500D01*
X124201250Y-62910500D01*
X124360000Y-62751750D01*
X124363072Y-62600000D01*
X124350812Y-62475518D01*
X124314502Y-62355820D01*
X124255537Y-62245506D01*
X124200900Y-62178930D01*
X124218671Y-62157275D01*
X124297850Y-62009142D01*
X124346608Y-61848408D01*
X124363072Y-61681250D01*
X124363072Y-61511616D01*
X124374188Y-61624482D01*
X124410498Y-61744180D01*
X124469463Y-61854494D01*
X124548815Y-61951185D01*
X124645506Y-62030537D01*
X124755820Y-62089502D01*
X124765000Y-62092287D01*
X124765001Y-63907713D01*
X124755820Y-63910498D01*
X124645506Y-63969463D01*
X124548815Y-64048815D01*
X124469463Y-64145506D01*
X124410498Y-64255820D01*
X124374188Y-64375518D01*
X124361928Y-64500000D01*
X124361928Y-65250000D01*
X124374188Y-65374482D01*
X124410498Y-65494180D01*
X124469463Y-65604494D01*
X124548815Y-65701185D01*
X124645506Y-65780537D01*
X124755820Y-65839502D01*
X124765001Y-65842287D01*
X124765000Y-70195553D01*
X121195554Y-73765000D01*
X119794994Y-73765000D01*
X119819553Y-73716608D01*
X119853314Y-73596166D01*
X119862928Y-73471452D01*
X119860000Y-73340750D01*
X119701252Y-73182002D01*
X119860000Y-73182002D01*
X119860000Y-73143072D01*
X120205000Y-73143072D01*
X120329482Y-73130812D01*
X120449180Y-73094502D01*
X120559494Y-73035537D01*
X120656185Y-72956185D01*
X120735537Y-72859494D01*
X120794502Y-72749180D01*
X120830812Y-72629482D01*
X120843072Y-72505000D01*
X120843072Y-72440796D01*
X120902240Y-72392238D01*
X120925261Y-72364188D01*
X123194198Y-70095251D01*
X123222238Y-70072239D01*
X123245251Y-70044198D01*
X123245254Y-70044195D01*
X123288515Y-69991481D01*
X123314088Y-69960321D01*
X123382338Y-69832634D01*
X123417608Y-69716365D01*
X123424366Y-69694087D01*
X123438557Y-69550002D01*
X123435001Y-69513897D01*
X123435001Y-65236105D01*
X123438557Y-65200000D01*
X123424366Y-65055915D01*
X123408011Y-65002000D01*
X123382338Y-64917368D01*
X123314088Y-64789681D01*
X123222239Y-64677763D01*
X123194194Y-64654747D01*
X122635791Y-64096345D01*
X122650518Y-64100812D01*
X122775000Y-64113072D01*
X122964250Y-64110000D01*
X123123000Y-63951250D01*
X123123000Y-63164500D01*
X123377000Y-63164500D01*
X123377000Y-63951250D01*
X123535750Y-64110000D01*
X123725000Y-64113072D01*
X123849482Y-64100812D01*
X123969180Y-64064502D01*
X124079494Y-64005537D01*
X124176185Y-63926185D01*
X124255537Y-63829494D01*
X124314502Y-63719180D01*
X124350812Y-63599482D01*
X124363072Y-63475000D01*
X124360000Y-63323250D01*
X124201250Y-63164500D01*
X123377000Y-63164500D01*
X123123000Y-63164500D01*
X122298750Y-63164500D01*
X122140000Y-63323250D01*
X122136928Y-63475000D01*
X122149188Y-63599482D01*
X122153655Y-63614209D01*
X121945258Y-63405812D01*
X121922238Y-63377762D01*
X121810320Y-63285913D01*
X121682633Y-63217663D01*
X121544085Y-63175635D01*
X121436105Y-63165000D01*
X121400000Y-63161444D01*
X121363895Y-63165000D01*
X120434702Y-63165000D01*
X120363405Y-63031614D01*
X120252962Y-62897038D01*
X120118386Y-62786595D01*
X119964850Y-62704528D01*
X119798254Y-62653992D01*
X119625000Y-62636928D01*
X118375000Y-62636928D01*
X118201746Y-62653992D01*
X118035150Y-62704528D01*
X117881614Y-62786595D01*
X117747038Y-62897038D01*
X117636595Y-63031614D01*
X117554528Y-63185150D01*
X117503992Y-63351746D01*
X117486928Y-63525000D01*
X117486928Y-64275000D01*
X117503992Y-64448254D01*
X117554528Y-64614850D01*
X117636595Y-64768386D01*
X117747038Y-64902962D01*
X117881614Y-65013405D01*
X118035150Y-65095472D01*
X118201746Y-65146008D01*
X118375000Y-65163072D01*
X119625000Y-65163072D01*
X119798254Y-65146008D01*
X119964850Y-65095472D01*
X120118386Y-65013405D01*
X120252962Y-64902962D01*
X120363405Y-64768386D01*
X120434702Y-64635000D01*
X121095554Y-64635000D01*
X121712470Y-65251916D01*
X121698102Y-65254774D01*
X121509744Y-65332795D01*
X121340226Y-65446063D01*
X121196063Y-65590226D01*
X121082795Y-65759744D01*
X121004774Y-65948102D01*
X120965000Y-66148061D01*
X120965000Y-66351939D01*
X121004774Y-66551898D01*
X121082795Y-66740256D01*
X121196063Y-66909774D01*
X121265001Y-66978712D01*
X121265001Y-67340552D01*
X119861950Y-68743604D01*
X119850812Y-68630518D01*
X119825000Y-68545427D01*
X119825000Y-67892996D01*
X119828555Y-67856901D01*
X119825000Y-67820806D01*
X119825000Y-67820797D01*
X119814365Y-67712817D01*
X119772337Y-67574269D01*
X119704087Y-67446582D01*
X119612238Y-67334664D01*
X119584193Y-67311648D01*
X112628356Y-60355812D01*
X112605335Y-60327761D01*
X112493417Y-60235912D01*
X112365730Y-60167662D01*
X112227182Y-60125634D01*
X112119202Y-60114999D01*
X112083097Y-60111443D01*
X112046992Y-60114999D01*
X101886105Y-60114999D01*
X101850000Y-60111443D01*
X101705915Y-60125634D01*
X101690913Y-60130185D01*
X101567368Y-60167662D01*
X101439681Y-60235912D01*
X101327763Y-60327761D01*
X101304747Y-60355806D01*
X101095897Y-60564656D01*
X100846260Y-60515000D01*
X100553740Y-60515000D01*
X100266842Y-60572068D01*
X99996589Y-60684010D01*
X99753368Y-60846525D01*
X99546525Y-61053368D01*
X99430000Y-61227760D01*
X99313475Y-61053368D01*
X99106632Y-60846525D01*
X98863411Y-60684010D01*
X98593158Y-60572068D01*
X98306260Y-60515000D01*
X98013740Y-60515000D01*
X97726842Y-60572068D01*
X97456589Y-60684010D01*
X97213368Y-60846525D01*
X97006525Y-61053368D01*
X96890000Y-61227760D01*
X96773475Y-61053368D01*
X96566632Y-60846525D01*
X96323411Y-60684010D01*
X96053158Y-60572068D01*
X95766260Y-60515000D01*
X95473740Y-60515000D01*
X95186842Y-60572068D01*
X94916589Y-60684010D01*
X94673368Y-60846525D01*
X94466525Y-61053368D01*
X94350000Y-61227760D01*
X94233475Y-61053368D01*
X94026632Y-60846525D01*
X93783411Y-60684010D01*
X93513158Y-60572068D01*
X93226260Y-60515000D01*
X92933740Y-60515000D01*
X92646842Y-60572068D01*
X92376589Y-60684010D01*
X92133368Y-60846525D01*
X91926525Y-61053368D01*
X91810000Y-61227760D01*
X91693475Y-61053368D01*
X91486632Y-60846525D01*
X91243411Y-60684010D01*
X90973158Y-60572068D01*
X90686260Y-60515000D01*
X90393740Y-60515000D01*
X90106842Y-60572068D01*
X89836589Y-60684010D01*
X89593368Y-60846525D01*
X89461513Y-60978380D01*
X89439502Y-60905820D01*
X89380537Y-60795506D01*
X89301185Y-60698815D01*
X89204494Y-60619463D01*
X89094180Y-60560498D01*
X88974482Y-60524188D01*
X88850000Y-60511928D01*
X88285750Y-60515000D01*
X88127000Y-60673750D01*
X87873000Y-60673750D01*
X87714250Y-60515000D01*
X87150000Y-60511928D01*
X87025518Y-60524188D01*
X86905820Y-60560498D01*
X86795506Y-60619463D01*
X86698815Y-60698815D01*
X86619463Y-60795506D01*
X86560498Y-60905820D01*
X86524188Y-61025518D01*
X86511928Y-61150000D01*
X79697482Y-61150000D01*
X79698147Y-61143225D01*
X79801763Y-60800033D01*
X79970062Y-60483511D01*
X80196637Y-60205701D01*
X80472856Y-59977194D01*
X80788197Y-59806690D01*
X81130656Y-59700681D01*
X81517712Y-59660000D01*
X136467721Y-59660000D01*
X136856775Y-59698147D01*
G36*
X126515000Y-73726260D02*
G01*
X126572068Y-74013158D01*
X126684010Y-74283411D01*
X126846525Y-74526632D01*
X127053368Y-74733475D01*
X127235534Y-74855195D01*
X127118645Y-74924822D01*
X126902412Y-75119731D01*
X126728359Y-75353080D01*
X126603175Y-75615901D01*
X126558524Y-75763110D01*
X126679845Y-75993000D01*
X127873000Y-75993000D01*
X127873000Y-75973000D01*
X128127000Y-75973000D01*
X128127000Y-75993000D01*
X128147000Y-75993000D01*
X128147000Y-76247000D01*
X128127000Y-76247000D01*
X128127000Y-76267000D01*
X127873000Y-76267000D01*
X127873000Y-76247000D01*
X126679845Y-76247000D01*
X126591186Y-76414999D01*
X123847436Y-76414999D01*
X123863072Y-76256250D01*
X123863072Y-76216374D01*
X126515000Y-73564447D01*
X126515000Y-73726260D01*
G37*
X126515000Y-73726260D02*
X126572068Y-74013158D01*
X126684010Y-74283411D01*
X126846525Y-74526632D01*
X127053368Y-74733475D01*
X127235534Y-74855195D01*
X127118645Y-74924822D01*
X126902412Y-75119731D01*
X126728359Y-75353080D01*
X126603175Y-75615901D01*
X126558524Y-75763110D01*
X126679845Y-75993000D01*
X127873000Y-75993000D01*
X127873000Y-75973000D01*
X128127000Y-75973000D01*
X128127000Y-75993000D01*
X128147000Y-75993000D01*
X128147000Y-76247000D01*
X128127000Y-76247000D01*
X128127000Y-76267000D01*
X127873000Y-76267000D01*
X127873000Y-76247000D01*
X126679845Y-76247000D01*
X126591186Y-76414999D01*
X123847436Y-76414999D01*
X123863072Y-76256250D01*
X123863072Y-76216374D01*
X126515000Y-73564447D01*
X126515000Y-73726260D01*
G36*
X110335316Y-73424366D02*
G01*
X110479401Y-73438557D01*
X110515506Y-73435001D01*
X112078839Y-73435001D01*
X110887190Y-74626651D01*
X110857236Y-74651234D01*
X110759138Y-74770766D01*
X110686246Y-74907139D01*
X110641359Y-75055112D01*
X110632068Y-75149445D01*
X110584087Y-75059680D01*
X110515253Y-74975806D01*
X110492238Y-74947762D01*
X110464193Y-74924746D01*
X109527000Y-73987554D01*
X109527000Y-73890061D01*
X109517017Y-73839872D01*
X109660400Y-73839872D01*
X109784882Y-73827612D01*
X109904580Y-73791302D01*
X110014894Y-73732337D01*
X110111585Y-73652985D01*
X110190937Y-73556294D01*
X110249902Y-73445980D01*
X110263103Y-73402461D01*
X110335316Y-73424366D01*
G37*
X110335316Y-73424366D02*
X110479401Y-73438557D01*
X110515506Y-73435001D01*
X112078839Y-73435001D01*
X110887190Y-74626651D01*
X110857236Y-74651234D01*
X110759138Y-74770766D01*
X110686246Y-74907139D01*
X110641359Y-75055112D01*
X110632068Y-75149445D01*
X110584087Y-75059680D01*
X110515253Y-74975806D01*
X110492238Y-74947762D01*
X110464193Y-74924746D01*
X109527000Y-73987554D01*
X109527000Y-73890061D01*
X109517017Y-73839872D01*
X109660400Y-73839872D01*
X109784882Y-73827612D01*
X109904580Y-73791302D01*
X110014894Y-73732337D01*
X110111585Y-73652985D01*
X110190937Y-73556294D01*
X110249902Y-73445980D01*
X110263103Y-73402461D01*
X110335316Y-73424366D01*
G36*
X105263672Y-69227383D02*
G01*
X105261444Y-69250000D01*
X105265000Y-69286104D01*
X105265000Y-69867497D01*
X105261444Y-69903602D01*
X105275635Y-70047687D01*
X105283083Y-70072238D01*
X105317663Y-70186234D01*
X105385913Y-70313921D01*
X105477762Y-70425839D01*
X105505808Y-70448856D01*
X106543144Y-71486193D01*
X106554475Y-71500000D01*
X106543144Y-71513807D01*
X105505808Y-72551144D01*
X105477762Y-72574161D01*
X105423242Y-72640594D01*
X105340226Y-72696063D01*
X105196063Y-72840226D01*
X105082795Y-73009744D01*
X105004774Y-73198102D01*
X104965000Y-73398061D01*
X104965000Y-73601939D01*
X105004774Y-73801898D01*
X105082795Y-73990256D01*
X105121809Y-74048644D01*
X105065518Y-74054188D01*
X104945820Y-74090498D01*
X104938684Y-74094312D01*
X104815757Y-74057023D01*
X104662500Y-74041928D01*
X104631730Y-74041928D01*
X104510000Y-73920198D01*
X104510000Y-72822802D01*
X104518027Y-72821835D01*
X104636593Y-72781984D01*
X104745106Y-72719767D01*
X104839396Y-72637575D01*
X104915840Y-72538568D01*
X104971499Y-72426550D01*
X105004235Y-72305826D01*
X105010000Y-72231750D01*
X104851250Y-72073000D01*
X104513072Y-72073000D01*
X104513072Y-72048939D01*
X104544180Y-72039502D01*
X104654494Y-71980537D01*
X104751185Y-71901185D01*
X104812067Y-71827000D01*
X104851250Y-71827000D01*
X105010000Y-71668250D01*
X105004235Y-71594174D01*
X104971499Y-71473450D01*
X104937220Y-71404461D01*
X104935000Y-71285750D01*
X104902757Y-71253507D01*
X104928164Y-71127002D01*
X104935000Y-71127002D01*
X104935000Y-71001466D01*
X104935171Y-70909645D01*
X104935000Y-70908777D01*
X104935000Y-70872998D01*
X104927952Y-70872998D01*
X104902987Y-70746263D01*
X104935000Y-70714250D01*
X104937220Y-70595539D01*
X104971499Y-70526550D01*
X105004235Y-70405826D01*
X105010000Y-70331750D01*
X104851250Y-70173000D01*
X104812067Y-70173000D01*
X104751185Y-70098815D01*
X104654494Y-70019463D01*
X104544180Y-69960498D01*
X104513072Y-69951061D01*
X104513072Y-69927000D01*
X104851250Y-69927000D01*
X105010000Y-69768250D01*
X105004235Y-69694174D01*
X104971499Y-69573450D01*
X104919881Y-69469565D01*
X105212868Y-69176579D01*
X105263672Y-69227383D01*
G37*
X105263672Y-69227383D02*
X105261444Y-69250000D01*
X105265000Y-69286104D01*
X105265000Y-69867497D01*
X105261444Y-69903602D01*
X105275635Y-70047687D01*
X105283083Y-70072238D01*
X105317663Y-70186234D01*
X105385913Y-70313921D01*
X105477762Y-70425839D01*
X105505808Y-70448856D01*
X106543144Y-71486193D01*
X106554475Y-71500000D01*
X106543144Y-71513807D01*
X105505808Y-72551144D01*
X105477762Y-72574161D01*
X105423242Y-72640594D01*
X105340226Y-72696063D01*
X105196063Y-72840226D01*
X105082795Y-73009744D01*
X105004774Y-73198102D01*
X104965000Y-73398061D01*
X104965000Y-73601939D01*
X105004774Y-73801898D01*
X105082795Y-73990256D01*
X105121809Y-74048644D01*
X105065518Y-74054188D01*
X104945820Y-74090498D01*
X104938684Y-74094312D01*
X104815757Y-74057023D01*
X104662500Y-74041928D01*
X104631730Y-74041928D01*
X104510000Y-73920198D01*
X104510000Y-72822802D01*
X104518027Y-72821835D01*
X104636593Y-72781984D01*
X104745106Y-72719767D01*
X104839396Y-72637575D01*
X104915840Y-72538568D01*
X104971499Y-72426550D01*
X105004235Y-72305826D01*
X105010000Y-72231750D01*
X104851250Y-72073000D01*
X104513072Y-72073000D01*
X104513072Y-72048939D01*
X104544180Y-72039502D01*
X104654494Y-71980537D01*
X104751185Y-71901185D01*
X104812067Y-71827000D01*
X104851250Y-71827000D01*
X105010000Y-71668250D01*
X105004235Y-71594174D01*
X104971499Y-71473450D01*
X104937220Y-71404461D01*
X104935000Y-71285750D01*
X104902757Y-71253507D01*
X104928164Y-71127002D01*
X104935000Y-71127002D01*
X104935000Y-71001466D01*
X104935171Y-70909645D01*
X104935000Y-70908777D01*
X104935000Y-70872998D01*
X104927952Y-70872998D01*
X104902987Y-70746263D01*
X104935000Y-70714250D01*
X104937220Y-70595539D01*
X104971499Y-70526550D01*
X105004235Y-70405826D01*
X105010000Y-70331750D01*
X104851250Y-70173000D01*
X104812067Y-70173000D01*
X104751185Y-70098815D01*
X104654494Y-70019463D01*
X104544180Y-69960498D01*
X104513072Y-69951061D01*
X104513072Y-69927000D01*
X104851250Y-69927000D01*
X105010000Y-69768250D01*
X105004235Y-69694174D01*
X104971499Y-69573450D01*
X104919881Y-69469565D01*
X105212868Y-69176579D01*
X105263672Y-69227383D01*
G36*
X111965001Y-71965001D02*
G01*
X111476245Y-71965001D01*
X111965001Y-71476245D01*
X111965001Y-71965001D01*
G37*
X111965001Y-71965001D02*
X111476245Y-71965001D01*
X111965001Y-71476245D01*
X111965001Y-71965001D01*
G36*
X117967000Y-70993000D02*
G01*
X117987000Y-70993000D01*
X117987000Y-71247000D01*
X117967000Y-71247000D01*
X117967000Y-71267000D01*
X117713000Y-71267000D01*
X117713000Y-71247000D01*
X117693000Y-71247000D01*
X117693000Y-70993000D01*
X117713000Y-70993000D01*
X117713000Y-70973000D01*
X117967000Y-70973000D01*
X117967000Y-70993000D01*
G37*
X117967000Y-70993000D02*
X117987000Y-70993000D01*
X117987000Y-71247000D01*
X117967000Y-71247000D01*
X117967000Y-71267000D01*
X117713000Y-71267000D01*
X117713000Y-71247000D01*
X117693000Y-71247000D01*
X117693000Y-70993000D01*
X117713000Y-70993000D01*
X117713000Y-70973000D01*
X117967000Y-70973000D01*
X117967000Y-70993000D01*
G36*
X121965001Y-69245554D02*
G01*
X120768459Y-70442097D01*
X120735537Y-70380506D01*
X120726915Y-70370000D01*
X120735537Y-70359494D01*
X120794502Y-70249180D01*
X120794690Y-70248560D01*
X120840000Y-70203250D01*
X120831210Y-70125439D01*
X120843072Y-70005000D01*
X120843072Y-69841374D01*
X121965001Y-68719446D01*
X121965001Y-69245554D01*
G37*
X121965001Y-69245554D02*
X120768459Y-70442097D01*
X120735537Y-70380506D01*
X120726915Y-70370000D01*
X120735537Y-70359494D01*
X120794502Y-70249180D01*
X120794690Y-70248560D01*
X120840000Y-70203250D01*
X120831210Y-70125439D01*
X120843072Y-70005000D01*
X120843072Y-69841374D01*
X121965001Y-68719446D01*
X121965001Y-69245554D01*
G36*
X113742499Y-65245943D02*
G01*
X113698102Y-65254774D01*
X113509744Y-65332795D01*
X113340226Y-65446063D01*
X113196063Y-65590226D01*
X113082795Y-65759744D01*
X113004774Y-65948102D01*
X112965000Y-66148061D01*
X112965000Y-66322334D01*
X112801898Y-66254774D01*
X112601939Y-66215000D01*
X112398061Y-66215000D01*
X112198102Y-66254774D01*
X112009744Y-66332795D01*
X111840226Y-66446063D01*
X111696063Y-66590226D01*
X111582795Y-66759744D01*
X111504774Y-66948102D01*
X111465000Y-67148061D01*
X111465000Y-67351939D01*
X111504774Y-67551898D01*
X111582795Y-67740256D01*
X111615388Y-67789035D01*
X111509744Y-67832795D01*
X111340226Y-67946063D01*
X111199230Y-68087059D01*
X111167205Y-68009744D01*
X111077513Y-67875510D01*
X111148274Y-67743125D01*
X111192977Y-67595757D01*
X111208072Y-67442500D01*
X111208072Y-67147500D01*
X111192977Y-66994243D01*
X111155688Y-66871316D01*
X111159502Y-66864180D01*
X111195812Y-66744482D01*
X111208072Y-66620000D01*
X111205000Y-66610750D01*
X111046250Y-66452000D01*
X110779763Y-66452000D01*
X110723125Y-66421726D01*
X110575757Y-66377023D01*
X110422500Y-66361928D01*
X110103000Y-66361928D01*
X110103000Y-66198000D01*
X110123000Y-66198000D01*
X110123000Y-65553750D01*
X110377000Y-65553750D01*
X110377000Y-66198000D01*
X111046250Y-66198000D01*
X111205000Y-66039250D01*
X111208072Y-66030000D01*
X111195812Y-65905518D01*
X111159502Y-65785820D01*
X111100537Y-65675506D01*
X111021185Y-65578815D01*
X110924494Y-65499463D01*
X110814180Y-65440498D01*
X110694482Y-65404188D01*
X110570000Y-65391928D01*
X110535750Y-65395000D01*
X110377000Y-65553750D01*
X110123000Y-65553750D01*
X109964250Y-65395000D01*
X109930000Y-65391928D01*
X109805518Y-65404188D01*
X109685820Y-65440498D01*
X109575506Y-65499463D01*
X109478815Y-65578815D01*
X109399463Y-65675506D01*
X109340498Y-65785820D01*
X109337727Y-65794956D01*
X109235320Y-65710913D01*
X109107633Y-65642663D01*
X108969085Y-65600635D01*
X108861105Y-65590000D01*
X108825000Y-65586444D01*
X108788895Y-65590000D01*
X108718970Y-65590000D01*
X108672500Y-65551863D01*
X108672500Y-65541211D01*
X108741437Y-65472274D01*
X108854705Y-65302756D01*
X108932726Y-65114398D01*
X108972500Y-64914439D01*
X108972500Y-64710561D01*
X108932726Y-64510602D01*
X108854705Y-64322244D01*
X108741437Y-64152726D01*
X108597274Y-64008563D01*
X108427756Y-63895295D01*
X108239398Y-63817274D01*
X108039439Y-63777500D01*
X107835561Y-63777500D01*
X107635602Y-63817274D01*
X107447244Y-63895295D01*
X107277726Y-64008563D01*
X107133563Y-64152726D01*
X107020295Y-64322244D01*
X106942274Y-64510602D01*
X106902500Y-64710561D01*
X106902500Y-64808053D01*
X105600807Y-66109747D01*
X105572762Y-66132763D01*
X105480913Y-66244681D01*
X105412662Y-66372368D01*
X105378264Y-66485763D01*
X105370634Y-66510916D01*
X105356443Y-66655001D01*
X105359999Y-66691106D01*
X105359999Y-66950554D01*
X104971951Y-67338602D01*
X104995947Y-67293709D01*
X105046128Y-67128285D01*
X105063072Y-66956250D01*
X105063072Y-66043750D01*
X105046128Y-65871715D01*
X104995947Y-65706291D01*
X104914458Y-65553836D01*
X104804792Y-65420208D01*
X104671164Y-65310542D01*
X104518709Y-65229053D01*
X104353285Y-65178872D01*
X104181250Y-65161928D01*
X103693750Y-65161928D01*
X103521715Y-65178872D01*
X103356291Y-65229053D01*
X103203836Y-65310542D01*
X103070208Y-65420208D01*
X103000000Y-65505756D01*
X102929792Y-65420208D01*
X102911343Y-65405067D01*
X102979705Y-65302756D01*
X103057726Y-65114398D01*
X103097500Y-64914439D01*
X103097500Y-64710561D01*
X103057726Y-64510602D01*
X102979705Y-64322244D01*
X102954827Y-64285011D01*
X105813884Y-64285011D01*
X105849989Y-64288567D01*
X105886094Y-64285011D01*
X105994074Y-64274376D01*
X106132622Y-64232348D01*
X106260309Y-64164098D01*
X106372227Y-64072249D01*
X106395247Y-64044199D01*
X107204447Y-63235000D01*
X111731556Y-63235000D01*
X113742499Y-65245943D01*
G37*
X113742499Y-65245943D02*
X113698102Y-65254774D01*
X113509744Y-65332795D01*
X113340226Y-65446063D01*
X113196063Y-65590226D01*
X113082795Y-65759744D01*
X113004774Y-65948102D01*
X112965000Y-66148061D01*
X112965000Y-66322334D01*
X112801898Y-66254774D01*
X112601939Y-66215000D01*
X112398061Y-66215000D01*
X112198102Y-66254774D01*
X112009744Y-66332795D01*
X111840226Y-66446063D01*
X111696063Y-66590226D01*
X111582795Y-66759744D01*
X111504774Y-66948102D01*
X111465000Y-67148061D01*
X111465000Y-67351939D01*
X111504774Y-67551898D01*
X111582795Y-67740256D01*
X111615388Y-67789035D01*
X111509744Y-67832795D01*
X111340226Y-67946063D01*
X111199230Y-68087059D01*
X111167205Y-68009744D01*
X111077513Y-67875510D01*
X111148274Y-67743125D01*
X111192977Y-67595757D01*
X111208072Y-67442500D01*
X111208072Y-67147500D01*
X111192977Y-66994243D01*
X111155688Y-66871316D01*
X111159502Y-66864180D01*
X111195812Y-66744482D01*
X111208072Y-66620000D01*
X111205000Y-66610750D01*
X111046250Y-66452000D01*
X110779763Y-66452000D01*
X110723125Y-66421726D01*
X110575757Y-66377023D01*
X110422500Y-66361928D01*
X110103000Y-66361928D01*
X110103000Y-66198000D01*
X110123000Y-66198000D01*
X110123000Y-65553750D01*
X110377000Y-65553750D01*
X110377000Y-66198000D01*
X111046250Y-66198000D01*
X111205000Y-66039250D01*
X111208072Y-66030000D01*
X111195812Y-65905518D01*
X111159502Y-65785820D01*
X111100537Y-65675506D01*
X111021185Y-65578815D01*
X110924494Y-65499463D01*
X110814180Y-65440498D01*
X110694482Y-65404188D01*
X110570000Y-65391928D01*
X110535750Y-65395000D01*
X110377000Y-65553750D01*
X110123000Y-65553750D01*
X109964250Y-65395000D01*
X109930000Y-65391928D01*
X109805518Y-65404188D01*
X109685820Y-65440498D01*
X109575506Y-65499463D01*
X109478815Y-65578815D01*
X109399463Y-65675506D01*
X109340498Y-65785820D01*
X109337727Y-65794956D01*
X109235320Y-65710913D01*
X109107633Y-65642663D01*
X108969085Y-65600635D01*
X108861105Y-65590000D01*
X108825000Y-65586444D01*
X108788895Y-65590000D01*
X108718970Y-65590000D01*
X108672500Y-65551863D01*
X108672500Y-65541211D01*
X108741437Y-65472274D01*
X108854705Y-65302756D01*
X108932726Y-65114398D01*
X108972500Y-64914439D01*
X108972500Y-64710561D01*
X108932726Y-64510602D01*
X108854705Y-64322244D01*
X108741437Y-64152726D01*
X108597274Y-64008563D01*
X108427756Y-63895295D01*
X108239398Y-63817274D01*
X108039439Y-63777500D01*
X107835561Y-63777500D01*
X107635602Y-63817274D01*
X107447244Y-63895295D01*
X107277726Y-64008563D01*
X107133563Y-64152726D01*
X107020295Y-64322244D01*
X106942274Y-64510602D01*
X106902500Y-64710561D01*
X106902500Y-64808053D01*
X105600807Y-66109747D01*
X105572762Y-66132763D01*
X105480913Y-66244681D01*
X105412662Y-66372368D01*
X105378264Y-66485763D01*
X105370634Y-66510916D01*
X105356443Y-66655001D01*
X105359999Y-66691106D01*
X105359999Y-66950554D01*
X104971951Y-67338602D01*
X104995947Y-67293709D01*
X105046128Y-67128285D01*
X105063072Y-66956250D01*
X105063072Y-66043750D01*
X105046128Y-65871715D01*
X104995947Y-65706291D01*
X104914458Y-65553836D01*
X104804792Y-65420208D01*
X104671164Y-65310542D01*
X104518709Y-65229053D01*
X104353285Y-65178872D01*
X104181250Y-65161928D01*
X103693750Y-65161928D01*
X103521715Y-65178872D01*
X103356291Y-65229053D01*
X103203836Y-65310542D01*
X103070208Y-65420208D01*
X103000000Y-65505756D01*
X102929792Y-65420208D01*
X102911343Y-65405067D01*
X102979705Y-65302756D01*
X103057726Y-65114398D01*
X103097500Y-64914439D01*
X103097500Y-64710561D01*
X103057726Y-64510602D01*
X102979705Y-64322244D01*
X102954827Y-64285011D01*
X105813884Y-64285011D01*
X105849989Y-64288567D01*
X105886094Y-64285011D01*
X105994074Y-64274376D01*
X106132622Y-64232348D01*
X106260309Y-64164098D01*
X106372227Y-64072249D01*
X106395247Y-64044199D01*
X107204447Y-63235000D01*
X111731556Y-63235000D01*
X113742499Y-65245943D01*
%TD*%
M02*
